<svg width="75" height="131" viewBox="0 0 75 131" fill="none" xmlns="http://www.w3.org/2000/svg">
<path d="M70.4276 38.4519V120.042C70.4276 121.861 69.7051 123.605 68.419 124.891C67.1329 126.177 65.3887 126.899 63.5699 126.899H10.8577C9.03891 126.899 7.29463 126.177 6.00857 124.891C4.7225 123.605 4 121.861 4 120.042V38.4519C3.99938 37.5512 4.17634 36.6592 4.52075 35.8269C4.86516 34.9946 5.37027 34.2383 6.00719 33.6014C6.6441 32.9645 7.40034 32.4594 8.23263 32.115C9.06492 31.7706 9.95694 31.5936 10.8577 31.5942H63.5699C65.3883 31.5955 67.1318 32.3184 68.4176 33.6042C69.7034 34.89 70.4263 36.6335 70.4276 38.4519V38.4519Z" stroke="#14738E" stroke-width="8" stroke-miterlimit="10"/>
<path d="M37.2138 31.5942V126.899H10.8577C9.03891 126.899 7.29463 126.177 6.00857 124.891C4.7225 123.605 4 121.861 4 120.042V38.4519C3.99938 37.5512 4.17634 36.6592 4.52075 35.8269C4.86516 34.9946 5.37027 34.2383 6.00719 33.6014C6.6441 32.9645 7.40034 32.4594 8.23263 32.115C9.06492 31.7706 9.95694 31.5936 10.8577 31.5942H37.2138Z" stroke="#14738E" stroke-width="8" stroke-miterlimit="10"/>
<path d="M52.183 31.9006H37.0254V5.059C37.4951 5.01169 37.9673 4.9928 38.4393 5.00244C39.0709 5.00244 43.9349 5.21925 45.6505 8.4902C46.0947 9.33173 46.2738 10.288 46.1642 11.2333C46.1149 11.673 46.012 12.1051 45.8579 12.52C45.3313 13.8523 44.4084 14.9907 43.2138 15.7815C43.6851 16.6581 44.1941 17.5301 44.6702 18.3832C47.286 23.0634 49.6803 27.3759 51.7824 31.1842C51.919 31.4245 52.0746 31.6649 52.183 31.9006Z" stroke="#14738E" stroke-width="8" stroke-miterlimit="10"/>
<path d="M37.0253 5.05908V31.9242H23.7954C28.1787 24.5764 32.3923 17.5914 33.2218 16.2576C30.1488 13.901 29.4041 10.3661 31.1668 7.89642C32.6185 5.80848 35.3427 5.22404 37.0253 5.05908Z" stroke="#14738E" stroke-width="8" stroke-miterlimit="10"/>
<path opacity="0.4" d="M62.6319 58.3839C63.3294 60.6792 64.1071 64.6572 62.3915 68.4937C58.8425 76.426 47.512 77.2885 42.8978 77.6373C41.368 77.7122 39.8348 77.6681 38.3119 77.5053C33.5492 77.0819 28.9267 75.6727 24.7379 73.3671C21.4905 71.5195 20.4206 69.7757 19.9399 68.6539C19.3979 67.3814 19.2895 66.1748 19.1386 64.4592C18.8985 62.6744 18.9799 60.8611 19.379 59.105C19.7462 57.6685 20.3567 56.3056 21.1842 55.0753C20.9358 54.6815 20.8497 54.2068 20.9438 53.7509C21.0381 53.4068 21.2313 53.0979 21.4993 52.8625C21.7674 52.6271 22.0986 52.4755 22.452 52.4265C22.1984 51.7847 22.0934 51.0939 22.1449 50.4058C22.1963 49.7177 22.4028 49.0502 22.7489 48.4532C23.1691 47.7894 23.7589 47.2498 24.4574 46.8902C25.1559 46.5305 25.9377 46.364 26.7221 46.4077C26.5712 46.1159 26.489 45.7935 26.4818 45.4651C26.4905 45.2157 26.5383 44.9692 26.6232 44.7345C26.7976 44.2632 29.8988 37.9994 33.0331 31.7167C35.9835 25.7451 38.9811 19.7594 39.5279 18.6706C37.5954 16.8938 37.1241 14.2026 38.2364 12.322C39.5703 10.0691 42.516 10.1162 42.8365 10.1304C44.0299 10.1675 45.1865 10.5524 46.164 11.238C46.1146 11.6777 46.0117 12.1098 45.8577 12.5247C45.3311 13.857 44.4081 14.9954 43.2136 15.7862C43.6849 16.6628 44.1939 17.5348 44.6699 18.3879C47.2858 23.068 49.68 27.3806 51.7821 31.1889L52.0225 31.7167C54.9871 38.2256 56.8299 42.4486 56.9148 42.9482C56.9704 43.277 57.0019 43.6094 57.009 43.9427C57.0121 44.3172 56.9805 44.6911 56.9148 45.0597L57.5652 46.6057C57.9357 46.4956 58.3332 46.5206 58.6869 46.6764C58.8982 46.7757 59.0849 46.9206 59.2337 47.1006C59.8141 47.2024 60.3317 47.5272 60.6759 48.0055C60.9519 48.4009 61.0894 48.8765 61.0671 49.3582C61.5511 49.4477 61.9999 49.6722 62.3618 50.0057C62.7237 50.3393 62.984 50.7684 63.1126 51.2434C63.1985 51.6218 63.2008 52.0143 63.1194 52.3936C63.038 52.773 62.8748 53.13 62.6413 53.4398C63.0402 53.679 63.3784 54.0073 63.6294 54.399C63.8804 54.7906 64.0375 55.235 64.0882 55.6974C64.1214 56.2366 64.0025 56.7744 63.745 57.2494C63.4876 57.7243 63.1019 58.1174 62.6319 58.3839V58.3839Z" stroke="#14738E" stroke-width="8" stroke-miterlimit="10"/>
<path d="M70.4276 38.4519V120.042C70.4276 121.861 69.7051 123.605 68.419 124.891C67.1329 126.177 65.3887 126.899 63.5699 126.899H10.8577C9.03891 126.899 7.29463 126.177 6.00857 124.891C4.7225 123.605 4 121.861 4 120.042V38.4519C3.99938 37.5512 4.17634 36.6592 4.52075 35.8269C4.86516 34.9946 5.37027 34.2383 6.00719 33.6014C6.6441 32.9645 7.40034 32.4594 8.23263 32.115C9.06492 31.7706 9.95694 31.5936 10.8577 31.5942H63.5699C65.3883 31.5955 67.1318 32.3184 68.4176 33.6042C69.7034 34.89 70.4263 36.6335 70.4276 38.4519V38.4519Z" fill="#0C3148"/>
<path d="M37.2138 31.5942V126.899H10.8577C9.03891 126.899 7.29463 126.177 6.00857 124.891C4.7225 123.605 4 121.861 4 120.042V38.4519C3.99938 37.5512 4.17634 36.6592 4.52075 35.8269C4.86516 34.9946 5.37027 34.2383 6.00719 33.6014C6.6441 32.9645 7.40034 32.4594 8.23263 32.115C9.06492 31.7706 9.95694 31.5936 10.8577 31.5942H37.2138Z" fill="#0B2839"/>
<path d="M52.183 31.9006H37.0254V5.059C37.4951 5.01169 37.9673 4.9928 38.4393 5.00244C39.0709 5.00244 43.9349 5.21925 45.6505 8.4902C46.0947 9.33173 46.2738 10.288 46.1642 11.2333C46.1149 11.673 46.012 12.1051 45.8579 12.52C45.3313 13.8523 44.4084 14.9907 43.2138 15.7815C43.6851 16.6581 44.1941 17.5301 44.6702 18.3832C47.286 23.0634 49.6803 27.3759 51.7824 31.1842C51.919 31.4245 52.0746 31.6649 52.183 31.9006Z" fill="#0C3148"/>
<path d="M37.0253 5.05908V31.9242H23.7954C28.1787 24.5764 32.3923 17.5914 33.2218 16.2576C30.1488 13.901 29.4041 10.3661 31.1668 7.89642C32.6185 5.80848 35.3427 5.22404 37.0253 5.05908Z" fill="#0B2839"/>
<path opacity="0.4" d="M62.6319 58.3839C63.3294 60.6792 64.1071 64.6572 62.3915 68.4937C58.8425 76.426 47.512 77.2885 42.8978 77.6373C41.368 77.7122 39.8348 77.6681 38.3119 77.5053C33.5492 77.0819 28.9267 75.6727 24.7379 73.3671C21.4905 71.5195 20.4206 69.7757 19.9399 68.6539C19.3979 67.3814 19.2895 66.1748 19.1386 64.4592C18.8985 62.6744 18.9799 60.8611 19.379 59.105C19.7462 57.6685 20.3567 56.3056 21.1842 55.0753C20.9358 54.6815 20.8497 54.2068 20.9438 53.7509C21.0381 53.4068 21.2313 53.0979 21.4993 52.8625C21.7674 52.6271 22.0986 52.4755 22.452 52.4265C22.1984 51.7847 22.0934 51.0939 22.1449 50.4058C22.1963 49.7177 22.4028 49.0502 22.7489 48.4532C23.1691 47.7894 23.7589 47.2498 24.4574 46.8902C25.1559 46.5305 25.9377 46.364 26.7221 46.4077C26.5712 46.1159 26.489 45.7935 26.4818 45.4651C26.4905 45.2157 26.5383 44.9692 26.6232 44.7345C26.7976 44.2632 29.8988 37.9994 33.0331 31.7167C35.9835 25.7451 38.9811 19.7594 39.5279 18.6706C37.5954 16.8938 37.1241 14.2026 38.2364 12.322C39.5703 10.0691 42.516 10.1162 42.8365 10.1304C44.0299 10.1675 45.1865 10.5524 46.164 11.238C46.1146 11.6777 46.0117 12.1098 45.8577 12.5247C45.3311 13.857 44.4081 14.9954 43.2136 15.7862C43.6849 16.6628 44.1939 17.5348 44.6699 18.3879C47.2858 23.068 49.68 27.3806 51.7821 31.1889L52.0225 31.7167C54.9871 38.2256 56.8299 42.4486 56.9148 42.9482C56.9704 43.277 57.0019 43.6094 57.009 43.9427C57.0121 44.3172 56.9805 44.6911 56.9148 45.0597L57.5652 46.6057C57.9357 46.4956 58.3332 46.5206 58.6869 46.6764C58.8982 46.7757 59.0849 46.9206 59.2337 47.1006C59.8141 47.2024 60.3317 47.5272 60.6759 48.0055C60.9519 48.4009 61.0894 48.8765 61.0671 49.3582C61.5511 49.4477 61.9999 49.6722 62.3618 50.0057C62.7237 50.3393 62.984 50.7684 63.1126 51.2434C63.1985 51.6218 63.2008 52.0143 63.1194 52.3936C63.038 52.773 62.8748 53.13 62.6413 53.4398C63.0402 53.679 63.3784 54.0073 63.6294 54.399C63.8804 54.7906 64.0375 55.235 64.0882 55.6974C64.1214 56.2366 64.0025 56.7744 63.745 57.2494C63.4876 57.7243 63.1019 58.1174 62.6319 58.3839V58.3839Z" fill="black"/>
<path d="M58.381 55.2968C58.3836 55.9013 58.4436 56.5041 58.5601 57.0972C58.6732 57.6675 58.6732 58.2425 58.7816 58.8034C58.824 59.0249 58.8335 59.2747 58.8759 59.4727C58.9795 60.1636 59.0032 60.8642 58.9466 61.5606C58.9218 61.8743 58.9218 62.1895 58.9466 62.5033C58.9712 62.9551 58.9267 63.4081 58.8146 63.8465C58.5644 64.9291 58.0926 65.9482 57.4289 66.8394C57.0472 67.4003 56.623 67.9281 56.1941 68.4513C55.8642 68.8566 55.5625 69.2808 55.209 69.6673C54.2164 70.7184 52.9935 71.5251 51.6364 72.0239C50.6608 72.4057 49.6522 72.6884 48.6813 73.0702C47.8664 73.4086 47.0304 73.6935 46.1786 73.9233C45.7621 74.0296 45.3355 74.0912 44.906 74.1071C44.5143 74.0913 44.1249 74.1756 43.7749 74.3522C43.656 74.4144 43.5187 74.4311 43.3884 74.3993C42.951 74.345 42.508 74.3545 42.0734 74.4276C41.7953 74.4276 41.522 74.47 41.2439 74.47C39.9195 74.47 38.5951 74.47 37.2754 74.47C36.0452 74.437 34.8198 74.371 33.5897 74.2674C32.27 74.159 30.9644 73.9751 29.6636 73.7489C29.2771 73.6829 28.9001 73.5887 28.523 73.4897C27.2904 73.237 26.0713 72.9223 24.8703 72.547C24.0691 72.2548 23.282 71.939 22.4854 71.6044C21.3793 71.191 20.3406 70.616 19.403 69.8982C18.8389 69.4584 18.3007 68.9863 17.7911 68.4843C17.6329 68.2712 17.4563 68.0725 17.2632 67.8904C16.7975 67.4938 16.4092 67.0144 16.1179 66.4765C16.0189 66.3256 15.9341 66.156 15.8257 66.0052C15.4393 65.4441 15.1965 64.7967 15.1187 64.1199C14.9962 63.3926 14.9112 62.6595 14.8642 61.9235C14.7967 60.9006 14.7857 59.8747 14.8312 58.8505C14.8126 57.8746 14.9107 56.8999 15.1234 55.9472C15.449 54.6519 15.9636 53.4116 16.6505 52.2662C16.6797 52.2138 16.7034 52.1586 16.7212 52.1013C16.7597 52.0659 16.7959 52.0281 16.8296 51.9882C17.2653 51.3671 17.8377 50.8544 18.5028 50.4894L18.7055 50.4281C18.9835 50.3277 19.2709 50.2551 19.5633 50.2113C19.8242 50.1747 20.0903 50.2038 20.3372 50.2959C20.5841 50.3881 20.8041 50.5405 20.9772 50.7392C21.062 50.9041 21.1186 51.0974 21.3354 51.1539C21.4579 51.3047 21.5852 51.4508 21.703 51.6252C22.3169 52.4455 22.9979 53.2133 23.7391 53.9206C23.9075 54.1118 24.0991 54.2812 24.3094 54.4249C24.3754 54.4909 24.4367 54.5615 24.5027 54.6228C25.3084 55.3384 26.1848 55.9701 27.1185 56.5081C27.5644 56.7358 28.0297 56.9235 28.5089 57.069C29.0728 57.2766 29.6489 57.4498 30.2339 57.5874C30.5275 57.6743 30.8291 57.7311 31.1341 57.7571C31.1341 57.7995 31.1341 57.8372 31.1624 57.8749C31.1794 58.1415 31.2566 58.4008 31.388 58.6335C31.5194 58.8661 31.7017 59.066 31.9212 59.2182C32.6121 59.6907 33.4429 59.9151 34.2778 59.8544C34.6965 59.831 35.0989 59.6842 35.4343 59.4326C35.7698 59.1811 36.0233 58.8359 36.1631 58.4405C36.1843 58.3838 36.2095 58.3287 36.2385 58.2755C36.2792 58.28 36.3203 58.28 36.361 58.2755C37.6383 58.2755 38.9203 58.3321 40.1976 58.1907C41.1402 58.087 42.0828 57.9692 43.0255 57.7854C43.7769 57.6305 44.5195 57.4354 45.2501 57.2009C47.2747 56.6429 49.2256 55.8454 51.0614 54.8255C51.6488 54.4912 52.2028 54.1014 52.7158 53.6613C53.0951 53.307 53.5088 52.9912 53.9506 52.7187C54.1627 52.6093 54.3429 52.4469 54.4738 52.2474C55.002 52.0144 55.5845 51.9329 56.1564 52.0117C56.3356 52.0116 56.5115 52.0597 56.6657 52.1509C56.82 52.2421 56.9468 52.3731 57.033 52.5302C57.1556 52.78 57.33 53.0015 57.4619 53.2419C57.8503 53.8871 58.1589 54.5772 58.381 55.2968V55.2968ZM53.4133 63.8182C53.3659 63.6869 53.3435 63.5478 53.3473 63.4082C53.2102 62.6601 52.9215 61.9479 52.499 61.3155C52.0487 60.5271 51.3466 59.913 50.5053 59.5717C50.2914 59.4824 50.0598 59.4436 49.8285 59.4583C49.5971 59.473 49.3723 59.5408 49.1715 59.6565C48.7211 59.9416 48.3869 60.3776 48.2288 60.8866C48.0214 61.4616 47.7999 62.0319 47.6067 62.6164C47.4134 63.2008 47.2013 63.9219 47.0128 64.5818C46.9138 64.9164 46.8479 65.2558 46.763 65.5904C46.7159 65.7789 46.6688 65.7883 46.5226 65.6658C46.4842 65.6321 46.448 65.5959 46.4142 65.5574C45.9744 65.0881 45.5695 64.5871 45.203 64.0586C44.7316 63.3658 44.364 62.6447 43.9681 61.8953C43.8901 61.7382 43.7811 61.5987 43.6476 61.485C43.5142 61.3713 43.359 61.2859 43.1916 61.2339C43.0242 61.1819 42.8479 61.1644 42.6736 61.1825C42.4992 61.2006 42.3303 61.2539 42.1771 61.3391C41.8256 61.5258 41.5161 61.7824 41.2674 62.0932C41.0129 62.3901 40.7961 62.7201 40.584 63.0358C39.7168 64.2566 38.9203 65.5197 38.1803 66.8064C37.9965 67.1269 37.8174 67.4521 37.6383 67.7726C37.5016 68.0083 37.5016 67.9988 37.3131 67.7726C36.9951 67.3854 36.7053 66.9759 36.4459 66.5472C35.6766 65.3378 35.0278 64.056 34.5087 62.7201C34.3755 62.3186 34.155 61.9516 33.863 61.6455C33.7197 61.4985 33.5397 61.3926 33.3416 61.3387C33.1435 61.2849 32.9346 61.285 32.7366 61.3391C32.1999 61.4586 31.709 61.7302 31.3226 62.1215C30.7194 62.7059 30.1255 63.2998 29.574 63.9361C29.2913 64.2613 29.0226 64.5912 28.754 64.9258C28.4853 65.2605 28.1554 65.7035 27.8537 66.09C27.7265 66.2455 27.6652 66.2455 27.5709 66.0664C27.4295 65.8063 27.3021 65.5389 27.1892 65.2652C26.7679 64.2524 26.5362 63.1708 26.5058 62.0744C26.4945 61.7175 26.5214 61.3604 26.5859 61.0092C26.633 60.7028 26.6377 60.3965 26.6707 60.0948C26.746 59.5404 26.617 58.9775 26.3078 58.5112C26.224 58.3694 26.113 58.2456 25.9811 58.147C25.8493 58.0483 25.6992 57.9766 25.5396 57.9362C25.2162 57.8689 24.8812 57.8818 24.5639 57.9739C23.9871 58.1826 23.425 58.4298 22.8813 58.7139C22.2168 59.0249 21.5711 59.3878 20.9348 59.7555C20.3931 60.0378 19.869 60.3526 19.3653 60.6981C19.3182 60.7311 19.2757 60.7924 19.1956 60.7358C19.1532 60.056 19.196 59.3736 19.3229 58.7044C19.4859 57.6939 19.7741 56.7075 20.1807 55.7681C20.294 55.5161 20.3839 55.2542 20.4493 54.9857C20.5698 54.5502 20.555 54.0883 20.4069 53.6613C20.3232 53.469 20.1885 53.3032 20.0174 53.1819C19.8462 53.0606 19.6452 52.9885 19.436 52.9732C19.137 52.9803 18.8457 53.0687 18.5932 53.229C18.3408 53.3892 18.1368 53.6153 18.0032 53.8829C17.6487 54.471 17.3775 55.1055 17.1972 55.7681C16.9382 56.586 16.7428 57.4228 16.6128 58.2708C16.4952 59.0056 16.4244 59.747 16.4007 60.4907C16.3662 61.2276 16.3788 61.9659 16.4384 62.7012C16.4855 63.1725 16.4855 63.6816 16.5798 64.1623C16.6201 64.6667 16.8371 65.1407 17.1925 65.5008C17.4064 65.709 17.693 65.8255 17.9914 65.8255C18.2898 65.8255 18.5765 65.709 18.7903 65.5008C19.0164 65.279 19.2245 65.0394 19.4124 64.7844C19.9196 64.0465 20.5362 63.3901 21.2411 62.8379C21.9103 62.3133 22.6496 61.885 23.4375 61.5653C23.6684 61.4711 23.7061 61.4852 23.692 61.7492C23.694 62.1144 23.7287 62.4788 23.7957 62.8379C23.9125 63.698 24.1033 64.5463 24.366 65.3736C24.5781 66.057 24.8373 66.731 25.0871 67.3955C25.3464 68.1297 25.6502 68.8475 25.9967 69.5447C26.2037 69.9703 26.513 70.338 26.897 70.6146C27.1325 70.7478 27.4034 70.8048 27.6726 70.7778C27.9419 70.7508 28.1961 70.6411 28.4005 70.4638C28.6964 70.1553 28.9515 69.81 29.1593 69.4363C29.54 68.6882 29.9814 67.9726 30.479 67.2966C30.9733 66.5929 31.5335 65.9379 32.1522 65.3406C32.3171 65.1898 32.3218 65.1851 32.4444 65.3736C32.7649 65.8732 33.0807 66.3775 33.387 66.8818L34.6926 68.965C35.1639 69.7003 35.6352 70.4261 36.1065 71.1661C36.3546 71.589 36.6555 71.9786 37.002 72.3255C37.2365 72.5161 37.5294 72.6202 37.8315 72.6202C38.1337 72.6202 38.4266 72.5161 38.6611 72.3255C39.1291 71.9156 39.4585 71.3705 39.6037 70.7655C39.8581 69.942 40.1732 69.1386 40.5463 68.3617C40.8949 67.6204 41.3097 66.9121 41.7859 66.2455C41.998 65.9439 42.2289 65.6564 42.4552 65.3689C42.573 65.2228 42.6578 65.2322 42.7804 65.3689C42.8134 65.4066 42.8322 65.4537 42.8652 65.4961C43.2376 66.0334 43.5958 66.5802 43.987 67.1033C44.7411 68.1214 45.4245 69.1913 46.2163 70.181C46.4642 70.4944 46.7717 70.7556 47.1212 70.9493C47.271 71.0233 47.4346 71.0654 47.6016 71.0726C47.7686 71.0799 47.9352 71.0523 48.0909 70.9915C48.2466 70.9307 48.3879 70.8382 48.5057 70.7197C48.6236 70.6013 48.7155 70.4595 48.7755 70.3036C48.9398 69.8096 49.038 69.2962 49.0678 68.7765C49.1232 68.1153 49.2144 67.4577 49.3411 66.8064C49.5186 65.9128 49.7676 65.0349 50.0858 64.1812C50.1164 64.0667 50.1692 63.9594 50.2413 63.8654C50.3978 64.0219 50.51 64.217 50.5666 64.431C50.8767 65.0988 51.1 65.8037 51.2311 66.5283C51.2926 66.9627 51.3759 67.3937 51.4809 67.8197C51.532 68.084 51.6613 68.3269 51.8521 68.5168C52.0428 68.7068 52.2863 68.835 52.5508 68.8849C52.963 68.9533 53.3859 68.9137 53.7783 68.77C54.1707 68.6263 54.5191 68.3833 54.7896 68.0648C55.2033 67.6083 55.5236 67.0751 55.7322 66.4953C56.0252 65.6886 56.2306 64.8527 56.3449 64.0021C56.4156 63.5307 56.4957 63.0594 56.5476 62.5457C56.5994 62.0319 56.656 61.5323 56.7125 61.028C56.755 60.6698 56.7125 60.3069 56.788 59.9581C56.8586 59.4868 56.8445 59.0155 56.8822 58.5442C56.9419 58.0248 56.9687 57.5022 56.9623 56.9794C56.9577 56.9497 56.9577 56.9195 56.9623 56.8899C57.0465 56.3525 57.0289 55.8041 56.9105 55.2732C56.836 54.9425 56.6516 54.6467 56.3873 54.4343C56.2954 54.351 56.1854 54.2902 56.066 54.2567C55.9466 54.2232 55.821 54.2178 55.6992 54.2411C55.4872 54.2784 55.2832 54.3517 55.0959 54.4579C54.8898 54.5929 54.7135 54.7688 54.5782 54.9748C54.4428 55.1807 54.3511 55.4122 54.3088 55.655C54.1459 56.2892 54.0666 56.942 54.0732 57.5968C54.0732 58.6007 53.9695 59.5999 53.993 60.6038C54.0001 60.6665 54.0001 60.7297 53.993 60.7924C53.9035 61.2401 53.8893 61.702 53.8281 62.1545C53.7668 62.6069 53.6631 63.1207 53.5547 63.5967C53.5555 63.6441 53.5426 63.6906 53.5175 63.7308C53.4924 63.7709 53.4562 63.8029 53.4133 63.8229V63.8182Z" fill="#0E728E"/>
<path d="M29.9746 25.2927C30.2338 24.7836 30.4931 24.2746 30.757 23.7656C31.3634 22.5967 31.9746 21.4278 32.5904 20.259C32.6242 20.1619 32.6789 20.0734 32.7507 19.9998C33.4357 20.3485 34.1285 20.6769 34.8292 20.9848C35.6257 21.3336 36.4317 21.6494 37.247 21.9274C37.8079 22.1254 38.3688 22.3045 38.9297 22.4977C39.4905 22.691 40.1881 22.9125 40.8149 23.1105C41.866 23.4357 42.9217 23.742 43.9822 24.0531C44.5713 24.2228 45.1605 24.3689 45.7543 24.5244C45.7967 24.5421 45.8438 24.5452 45.8882 24.5333C45.9325 24.5213 45.9716 24.495 45.9994 24.4584C46.2964 25.1324 46.6027 25.8017 46.8902 26.4804C48.0371 29.1763 49.1792 31.8738 50.3167 34.5729C50.9294 36.0151 51.5563 37.4527 52.169 38.8949C52.3635 39.325 52.4892 39.7831 52.5413 40.2523C52.3387 40.1769 52.1407 40.0873 51.938 40.0308C50.8976 39.7227 49.8748 39.3577 48.8745 38.9373C48.0638 38.6074 47.2626 38.2398 46.4707 37.8627C45.2783 37.2971 44.1142 36.7033 42.95 36.0481C41.7858 35.393 40.5934 34.6766 39.4811 33.9084C38.859 33.4795 38.2321 33.0553 37.5958 32.6169C36.8888 32.1079 36.1819 31.5989 35.5126 31.0522C34.8433 30.5054 34.1646 29.9681 33.5236 29.3743C32.8349 28.7633 32.1833 28.1117 31.5724 27.423C31.0413 26.8399 30.5882 26.1903 30.2244 25.4906C30.2069 25.4367 30.1739 25.3891 30.1294 25.3538C30.085 25.3186 30.0311 25.2973 29.9746 25.2927V25.2927Z" fill="#0E728E"/>
<path d="M29.9746 25.2927C30.0311 25.2974 30.085 25.3187 30.1294 25.3539C30.1739 25.3891 30.2069 25.4367 30.2244 25.4907C30.5882 26.1904 31.0413 26.84 31.5724 27.4231C32.1833 28.1118 32.8349 28.7634 33.5236 29.3743C34.174 29.9682 34.8622 30.5102 35.5456 31.0664C36.229 31.6225 36.9218 32.1221 37.6288 32.6311C38.2415 33.0695 38.8684 33.4937 39.5141 33.9226C40.6358 34.6908 41.8047 35.3884 42.983 36.0623C44.1613 36.7363 45.2877 37.3113 46.4802 37.8581C47.272 38.2351 48.0732 38.6027 48.8839 38.9327C49.8843 39.353 50.907 39.7181 51.9474 40.0261C52.1501 40.0827 52.3481 40.1722 52.5507 40.2476C52.6767 40.7552 52.6554 41.2882 52.4895 41.7841C52.2846 42.1038 52.0408 42.3967 51.7636 42.6561C51.2617 43.0626 50.7068 43.3988 50.114 43.6553C49.2798 44.0323 48.4408 44.3811 47.6019 44.744C47.3822 44.8558 47.1495 44.9397 46.9091 44.9938C46.9091 44.8666 46.8007 44.8618 46.7205 44.8289L45.5328 44.3293L43.7984 43.5516C43.0442 43.2122 42.3137 42.8305 41.5784 42.4534C40.8432 42.0764 40.1645 41.6993 39.4764 41.2987C38.7882 40.8981 38.2038 40.5681 37.5911 40.1769C36.7003 39.6208 35.8189 39.0411 34.9564 38.4425C34.405 38.0607 33.8583 37.6601 33.3162 37.2642C32.2416 36.4818 31.2142 35.6382 30.2055 34.7756C29.5693 34.2619 28.9801 33.6869 28.3768 33.1449C27.9432 32.7537 27.5473 32.3201 27.1326 31.91C27.0154 31.7974 26.9168 31.6669 26.8403 31.5235C26.9775 31.1646 27.1349 30.8137 27.3117 30.4725C28.193 28.7616 29.0602 27.0649 29.9228 25.3681C29.9373 25.3412 29.9547 25.3159 29.9746 25.2927V25.2927Z" fill="#08516C"/>
<path d="M26.8402 31.5188C26.9167 31.6622 27.0153 31.7926 27.1324 31.9053C27.5472 32.3153 27.9431 32.7489 28.3767 33.1401C28.9847 33.6869 29.5691 34.2619 30.1913 34.7945C31.1999 35.657 32.2274 36.5006 33.302 37.283C33.844 37.6789 34.3907 38.0795 34.9422 38.4613C35.8047 39.0599 36.686 39.6396 37.5768 40.1958C38.2037 40.587 38.84 40.9546 39.4621 41.3175C40.0842 41.6804 40.8761 42.1046 41.5642 42.4722C42.2523 42.8399 43.03 43.2311 43.7841 43.5704L45.5185 44.3481L46.7063 44.8477C46.7864 44.8807 46.8995 44.8854 46.8948 45.0126L46.6968 45.121C46.5038 45.1529 46.3155 45.2083 46.136 45.286C44.1535 45.8788 42.1289 46.32 40.0795 46.6057C39.2689 46.7329 38.4582 46.8413 37.6475 46.9498C36.9358 47.0393 36.2336 47.1477 35.5077 47.1713C35.5077 47.0299 35.3805 46.9922 35.2909 46.9356C33.9386 46.0328 32.6661 45.0158 31.4874 43.8956C30.7993 43.2546 30.1347 42.5806 29.5031 41.8784C28.9344 41.2499 28.3783 40.609 27.8347 39.9554C27.1613 39.1453 26.5486 38.2868 26.0013 37.3867C25.8113 37.106 25.6427 36.8113 25.4969 36.5053C25.365 36.199 25.233 35.8879 25.1058 35.5627C25.0782 35.4971 25.028 35.4436 24.9644 35.4119C25.0871 35.0889 25.2304 34.774 25.3933 34.4692C25.8646 33.4983 26.3359 32.5368 26.8072 31.5706C26.8169 31.5526 26.8279 31.5352 26.8402 31.5188V31.5188Z" fill="#0E728E"/>
<path d="M24.9643 35.4354C25.028 35.4671 25.0781 35.5207 25.1057 35.5862C25.2329 35.902 25.3649 36.2131 25.4969 36.5289C25.6437 36.8268 25.8123 37.1135 26.0012 37.3867C26.5536 38.2823 27.1711 39.1361 27.8487 39.9412C28.3923 40.5948 28.9485 41.2358 29.5172 41.8642C30.1488 42.5665 30.8133 43.2405 31.5015 43.8814C32.6801 45.0016 33.9526 46.0187 35.305 46.9214C35.3946 46.978 35.5218 47.0157 35.5218 47.1571C35.2998 47.1853 35.0763 47.1995 34.8525 47.1995C33.3553 47.2969 31.852 47.1666 30.3939 46.813C30.0891 46.7119 29.772 46.6532 29.4512 46.6387L28.6971 45.8704C28.5951 45.7398 28.4525 45.6469 28.2918 45.6065C27.8382 45.5152 27.3677 45.5594 26.9391 45.7337C26.8536 45.7852 26.7588 45.8192 26.6601 45.8338C26.5614 45.8483 26.4608 45.8432 26.3641 45.8186C26.3312 45.7954 26.2966 45.7749 26.2604 45.7573C25.6571 45.5452 25.0538 45.3237 24.4647 45.0786C24.4255 45.0741 24.386 45.0741 24.3469 45.0786C24.3092 45.022 24.2432 45.0173 24.1913 44.989C23.4566 44.7018 22.8349 44.1842 22.4192 43.5138C22.3909 43.4667 22.3673 43.396 22.2825 43.4243C22.2963 43.3905 22.3014 43.3538 22.2973 43.3176C22.2932 43.2813 22.28 43.2467 22.2589 43.2169C22.1516 42.9667 22.0962 42.6973 22.0962 42.4251C22.0962 42.1528 22.1516 41.8834 22.2589 41.6333C22.5276 40.9263 22.8198 40.2193 23.112 39.5312C23.654 38.2398 24.229 36.9625 24.8276 35.6947C24.8653 35.591 24.9172 35.5014 24.9643 35.4354Z" fill="#0C526D"/>
<path d="M34.9939 15.6307C34.9709 15.5853 34.9406 15.5439 34.9043 15.5081C34.3338 15.0625 33.8821 14.4829 33.5894 13.8208C33.3227 13.3118 33.1351 12.765 33.0332 12.1995C32.9328 11.6989 32.9371 11.183 33.0458 10.6841C33.1544 10.1853 33.3652 9.71431 33.6648 9.30088C34.2957 8.38893 35.1668 7.66951 36.1816 7.22237C36.4491 7.11873 36.73 7.05367 37.0158 7.02912C37.6413 6.95336 38.2721 6.93286 38.9011 6.96785C40.0182 7.03498 41.0738 7.50173 41.8751 8.28283C42.0628 8.45863 42.2376 8.64764 42.3983 8.84841C42.8932 9.4531 43.1616 10.2115 43.1571 10.9929C43.1856 11.9011 43.0117 12.8043 42.6481 13.637C42.4094 14.1403 42.0911 14.6018 41.7055 15.0038C41.6018 15.1169 41.4698 15.2112 41.4509 15.3809C41.3378 15.3809 41.2671 15.4374 41.187 15.5034C40.4823 16.1117 39.5823 16.4463 38.6513 16.4461C38.0931 16.4532 37.5361 16.3931 36.9923 16.267C36.5125 16.1517 36.0403 16.0068 35.5783 15.8333C35.3568 15.7674 35.2013 15.626 34.9939 15.6307ZM39.6458 13.4202C39.8769 13.4363 40.1088 13.4054 40.3275 13.3292C40.5463 13.2531 40.7473 13.1333 40.9184 12.9772C41.2508 12.594 41.4627 12.1212 41.5272 11.6181C41.5918 11.1149 41.5062 10.6039 41.2813 10.1493C41.2066 10.013 41.1076 9.89153 40.9891 9.79105C40.4082 9.27843 39.6879 8.95029 38.92 8.84841C38.5484 8.77814 38.164 8.83765 37.8311 9.01697C37.4982 9.1963 37.237 9.48455 37.0913 9.83347C36.9641 10.1995 36.8802 10.5791 36.8415 10.9646C36.7838 11.3114 36.8366 11.6675 36.9923 11.9827C37.1248 12.2503 37.3205 12.4817 37.5626 12.6567C38.1534 13.1345 38.8861 13.4031 39.6458 13.4202V13.4202Z" fill="#0E728E"/>
<path d="M46.009 24.4726C45.9812 24.5091 45.9421 24.5355 45.8977 24.5474C45.8534 24.5594 45.8063 24.5562 45.7639 24.5385C45.1701 24.3783 44.5809 24.2322 43.9918 24.0672C42.9313 23.7656 41.8755 23.4592 40.8245 23.1246C40.1882 22.9266 39.5567 22.7287 38.9392 22.5119C38.3218 22.2951 37.8175 22.1395 37.2566 21.9416C36.4412 21.6446 35.6353 21.3289 34.8388 20.9989C34.1381 20.6847 33.4452 20.3564 32.7603 20.0139C32.8786 19.7096 33.0204 19.4149 33.1844 19.1325C33.4578 18.6046 33.7359 18.0815 34.014 17.5583C34.0425 17.6178 34.0827 17.6709 34.132 17.7146C34.1814 17.7583 34.239 17.7917 34.3015 17.8128C34.631 17.9491 34.9696 18.0625 35.3148 18.1522C35.9726 18.2931 36.6411 18.3782 37.3132 18.4067C37.9259 18.435 38.5386 18.4067 39.156 18.4067C39.2784 18.4049 39.4002 18.3891 39.519 18.3596C39.9957 18.2501 40.46 18.0922 40.9046 17.8882C41.4322 17.6809 41.9388 17.4236 42.4176 17.12C42.6538 17.4903 42.8647 17.8761 43.0491 18.2747C44.0577 20.2605 45.024 22.2699 45.9477 24.3029C45.9713 24.3594 45.9854 24.416 46.009 24.4726Z" fill="#0C526D"/>
<path d="M54.7801 43.9568C55.1427 44.0678 55.4793 44.2505 55.7699 44.4941C56.2168 44.9238 56.5295 45.4739 56.6701 46.0778C56.6701 46.1767 56.7266 46.271 56.7549 46.37C56.8012 46.7863 56.8263 47.2048 56.8303 47.6237C56.8509 48.3546 56.6611 49.076 56.2836 49.7022C55.8674 50.4639 55.1841 51.0448 54.3653 51.3329C53.954 51.4915 53.5103 51.5473 53.0725 51.4956C52.6347 51.4438 52.2162 51.2861 51.8532 51.036L51.5846 50.8852C51.5824 50.794 51.6018 50.7036 51.6411 50.6213C51.7205 50.4214 51.7652 50.2094 51.7731 49.9944C51.7889 49.5624 51.6558 49.1381 51.396 48.7925C51.3638 48.7556 51.3407 48.7116 51.3284 48.6642C51.3162 48.6168 51.3151 48.5671 51.3253 48.5192C51.3939 48.2632 51.3858 47.9928 51.302 47.7414C51.2182 47.4901 51.0624 47.2688 50.854 47.1052C50.7927 47.0581 50.7456 47.0204 50.7645 46.9308C50.8025 46.6064 50.8867 46.289 51.0143 45.9882C51.1179 45.7761 51.2216 45.564 51.3018 45.3472C51.4899 44.9074 51.8224 44.545 52.2444 44.3197C52.7008 43.9965 53.2502 43.831 53.8092 43.8484C54.1351 43.8603 54.4596 43.8966 54.7801 43.9568V43.9568ZM51.5327 48.0196C51.5255 48.1342 51.5255 48.2491 51.5327 48.3636C51.534 48.6307 51.6021 48.8931 51.7307 49.1272C51.7772 49.2039 51.8422 49.2679 51.9196 49.3133C51.997 49.3588 52.0845 49.3843 52.1742 49.3876C52.264 49.3908 52.3531 49.3718 52.4336 49.3321C52.5141 49.2924 52.5835 49.2333 52.6356 49.1602C52.6945 49.0826 52.7346 48.9924 52.7526 48.8967C52.7706 48.801 52.766 48.7024 52.7393 48.6087C52.6915 48.3667 52.6788 48.1191 52.7016 47.8735C52.7016 47.6425 52.7911 47.6095 52.9938 47.7227C53.225 47.8776 53.4053 48.0973 53.5122 48.3542C53.5885 48.5437 53.6832 48.7253 53.795 48.8962C53.8762 49.0116 53.9969 49.093 54.1342 49.1252C54.2715 49.1573 54.4158 49.1379 54.5397 49.0706C54.6583 49.0082 54.7509 48.9057 54.8009 48.7814C54.851 48.6571 54.8553 48.5191 54.8131 48.3919C54.7856 48.2937 54.7509 48.1976 54.7094 48.1044C54.4589 47.4993 54.0339 46.9825 53.4887 46.6198C53.3661 46.5396 53.3756 46.4689 53.4887 46.3794C53.7093 46.1743 53.9982 46.0584 54.2993 46.0542C54.4313 46.0575 54.5631 46.0416 54.6905 46.0071C54.8084 45.9687 54.9102 45.8924 54.9802 45.7901C55.0501 45.6878 55.0841 45.5652 55.077 45.4415C55.0727 45.3102 55.0236 45.1844 54.9378 45.0849C54.8521 44.9855 54.7349 44.9184 54.6057 44.8947C54.3009 44.8522 53.9909 44.8666 53.6913 44.9372C53.3417 45.0407 53.0196 45.221 52.7487 45.465C52.3541 45.7604 52.0373 46.1472 51.8254 46.5922C51.6136 47.0373 51.5131 47.5271 51.5327 48.0196Z" fill="#BB1B19"/>
<path d="M54.7802 43.9569C54.4462 43.9089 54.109 43.8869 53.7716 43.8909C53.2126 43.8735 52.6632 44.039 52.2068 44.3622C51.7849 44.5875 51.4524 44.9499 51.2642 45.3897C51.1841 45.6065 51.0804 45.8186 50.9767 46.0307C50.8491 46.3314 50.765 46.6488 50.7269 46.9733C50.7269 47.0629 50.7552 47.1006 50.8164 47.1477C51.0248 47.3113 51.1806 47.5325 51.2644 47.7839C51.3482 48.0353 51.3563 48.3057 51.2878 48.5617C51.2775 48.6096 51.2786 48.6592 51.2909 48.7067C51.3031 48.7541 51.3263 48.7981 51.3585 48.835C51.6182 49.1806 51.7513 49.6049 51.7355 50.0369C51.7276 50.2518 51.683 50.4638 51.6035 50.6637C51.5636 50.7475 51.5442 50.8396 51.547 50.9324C51.4433 50.9795 51.4197 51.0879 51.3632 51.168C51.1785 51.4598 50.9187 51.6965 50.6111 51.8533C50.3034 52.01 49.9592 52.081 49.6146 52.0588C49.3115 52.0486 49.0176 51.9523 48.7672 51.7812C48.5168 51.6101 48.3203 51.3713 48.2006 51.0926C48.0405 50.7027 47.9481 50.2883 47.9273 49.8672C47.8978 49.6127 47.9335 49.3548 48.0309 49.1178C48.0437 49.0897 48.0503 49.0592 48.0503 49.0283C48.0503 48.9974 48.0437 48.9668 48.0309 48.9387C47.9601 48.6855 47.8555 48.4429 47.7199 48.2176C47.3889 47.8609 47.1894 47.4021 47.1543 46.9168C48.3108 46.4886 49.4171 45.9355 50.4535 45.2671C51.2558 44.7543 51.9946 44.1484 52.6546 43.462C52.7271 43.362 52.8269 43.2851 52.9421 43.2405C53.0788 43.5233 53.0882 43.5327 53.4417 43.4809C53.644 43.4466 53.8515 43.458 54.0488 43.5143C54.2462 43.5706 54.4284 43.6702 54.5823 43.8061C54.6621 43.8349 54.7312 43.8875 54.7802 43.9569Z" fill="#E75519"/>
<path d="M54.3652 51.333C55.184 51.0448 55.8673 50.464 56.2835 49.7022C56.661 49.076 56.8508 48.3546 56.8302 47.6237C56.8262 47.2048 56.8011 46.7864 56.7548 46.37C57.1568 46.4586 57.5318 46.6422 57.8483 46.9054C58.1648 47.1686 58.4137 47.5038 58.5741 47.8829C58.6574 48.071 58.6945 48.2762 58.6825 48.4815C58.715 49.0785 58.5847 49.6731 58.3055 50.2018C58.2871 50.2201 58.2735 50.2426 58.2658 50.2673C58.2581 50.2921 58.2565 50.3183 58.2611 50.3438C58.2658 50.3693 58.2765 50.3932 58.2924 50.4137C58.3084 50.4341 58.329 50.4503 58.3526 50.461C58.3856 50.461 58.4186 50.5082 58.4516 50.5317C58.9263 50.8469 59.2856 51.308 59.4752 51.8453C59.6648 52.3827 59.6744 52.9672 59.5026 53.5105C59.3352 54.2143 58.941 54.8436 58.3809 55.3015C58.1606 54.5737 57.8519 53.8757 57.4618 53.223C57.3298 52.9826 57.1554 52.7516 57.0329 52.5113C56.9467 52.3542 56.8198 52.2232 56.6656 52.132C56.5113 52.0408 56.3354 51.9927 56.1562 51.9928C55.5844 51.914 55.0018 51.9956 54.4736 52.2285C54.4736 52.0022 54.4736 51.7807 54.4736 51.5545C54.4689 51.4649 54.4831 51.3707 54.3652 51.333Z" fill="#E75519"/>
<path d="M42.4174 17.1201C41.9361 17.4275 41.4263 17.688 40.8951 17.8978C40.4505 18.1017 39.9861 18.2597 39.5094 18.3691C39.3906 18.3987 39.2689 18.4145 39.1465 18.4162C38.529 18.4162 37.9163 18.4162 37.3036 18.4162C36.6315 18.3878 35.963 18.3026 35.3052 18.1617C34.96 18.0721 34.6215 17.9587 34.2919 17.8224C34.2294 17.8012 34.1718 17.7678 34.1225 17.7241C34.0731 17.6804 34.0329 17.6273 34.0044 17.5679C34.2919 16.908 34.6501 16.2859 34.9942 15.6543C35.2015 15.6543 35.3571 15.791 35.5315 15.857C35.9934 16.0305 36.4656 16.1753 36.9454 16.2906C37.5048 16.4189 38.0778 16.4775 38.6516 16.465C39.5825 16.4652 40.4826 16.1307 41.1873 15.5223C41.2674 15.4564 41.3381 15.3809 41.4512 15.3998C41.8155 15.9485 42.1384 16.5235 42.4174 17.1201V17.1201Z" fill="#0E324A"/>
<path d="M20.9674 50.659C20.7943 50.4603 20.5743 50.308 20.3274 50.2158C20.0805 50.1236 19.8145 50.0945 19.5535 50.1311C19.2611 50.175 18.9738 50.2476 18.6957 50.3479L18.493 50.4092C18.493 50.3055 18.4176 50.249 18.3516 50.1877C18.2228 50.0446 18.112 49.8864 18.0217 49.7164C17.9652 49.6221 17.9746 49.4948 17.8662 49.4241C17.6903 48.6038 17.6743 47.7573 17.819 46.9309C17.8557 46.6974 17.9373 46.4733 18.0594 46.271C18.3292 45.7852 18.6234 45.3132 18.9408 44.8571C19.3205 44.2804 19.8685 43.8345 20.5103 43.5798C20.7881 43.4772 21.0814 43.423 21.3775 43.4196C21.6744 43.4196 21.9714 43.4196 22.2683 43.4196C22.2646 43.4788 22.2535 43.5374 22.2353 43.5939L21.6697 44.7157C21.2791 44.6862 20.8875 44.7593 20.5338 44.9278C20.0485 45.1947 19.617 45.5495 19.2613 45.9741C19.1283 46.1316 19.007 46.2986 18.8984 46.4737C18.8146 46.5922 18.7696 46.7339 18.7696 46.879C18.7696 47.0242 18.8146 47.1658 18.8984 47.2844C18.9644 47.3957 19.0707 47.4773 19.1953 47.5124C19.3199 47.5475 19.4532 47.5334 19.5676 47.4729C19.6625 47.4266 19.7465 47.3606 19.8139 47.2793C19.8814 47.1981 19.9308 47.1034 19.9588 47.0016C19.976 46.9208 20.0157 46.8466 20.0732 46.7874C20.1307 46.7282 20.2038 46.6864 20.284 46.6669C20.1692 47.1545 20.1279 47.6565 20.1615 48.1563C20.1492 48.2438 20.1567 48.333 20.1835 48.4172C20.2103 48.5014 20.2558 48.5785 20.3164 48.6427C20.3771 48.707 20.4514 48.7568 20.5339 48.7885C20.6164 48.8201 20.705 48.8328 20.7931 48.8256C20.8109 49.4399 20.8692 50.0523 20.9674 50.659V50.659Z" fill="#BB1E1A"/>
<path d="M53.0174 43.1981C52.9022 43.2427 52.8024 43.3196 52.7299 43.4196C52.07 44.106 51.3311 44.7119 50.5288 45.2247C49.4924 45.8931 48.3861 46.4462 47.2296 46.8744H47.1778C47.2107 46.746 47.2107 46.6115 47.1778 46.4832C47.0411 46.0118 46.8997 45.5924 46.7583 45.1446L46.9563 45.0362C47.1967 44.9821 47.4294 44.8982 47.6491 44.7864C48.488 44.4235 49.327 44.0747 50.1612 43.6977C50.754 43.4412 51.3089 43.105 51.8108 42.6985C52.088 42.4391 52.3318 42.1462 52.5367 41.8265C52.735 42.2695 52.8958 42.7282 53.0174 43.1981V43.1981Z" fill="#DF224C"/>
<path d="M17.8898 49.4242C17.9982 49.4949 17.9888 49.6221 18.0453 49.7164C18.1356 49.8864 18.2464 50.0447 18.3752 50.1877C18.4412 50.249 18.5213 50.3056 18.5166 50.4092C17.8516 50.7743 17.2792 51.287 16.8434 51.908C16.8098 51.948 16.7735 51.9858 16.735 52.0212C16.5766 51.7854 16.4806 51.5134 16.456 51.2304C16.4314 50.9475 16.479 50.6629 16.5944 50.4034C16.7098 50.1439 16.8892 49.9179 17.1158 49.7467C17.3423 49.5754 17.6086 49.4644 17.8898 49.4242Z" fill="#E75519"/>
<path d="M53.4131 63.823C53.4519 63.8017 53.4842 63.7703 53.5066 63.7321C53.5291 63.6939 53.5407 63.6504 53.5404 63.6062C53.6488 63.1348 53.743 62.6635 53.8137 62.1639C53.8844 61.6643 53.8891 61.2496 53.9787 60.8018C53.9857 60.7392 53.9857 60.6759 53.9787 60.6133C53.9787 59.6094 54.0447 58.6102 54.0588 57.6063C54.0523 56.9515 54.1315 56.2987 54.2945 55.6644C54.3367 55.4217 54.4284 55.1901 54.5638 54.9842C54.6992 54.7783 54.8754 54.6023 55.0816 54.4673C55.2688 54.3611 55.4729 54.2878 55.6849 54.2505C55.8067 54.2272 55.9322 54.2326 56.0517 54.2661C56.1711 54.2997 56.2811 54.3605 56.373 54.4437C56.6372 54.6562 56.8217 54.9519 56.8961 55.2827C57.0146 55.8135 57.0321 56.3619 56.948 56.8993C56.9433 56.929 56.9433 56.9592 56.948 56.9888C56.9543 57.5116 56.9276 58.0342 56.8679 58.5536C56.8302 59.0249 56.8679 59.4963 56.7736 59.9676C56.7218 60.3164 56.7406 60.6793 56.6982 61.0375C56.6416 61.5418 56.5851 62.0508 56.5332 62.5551C56.4814 63.0594 56.4013 63.526 56.3306 64.0115C56.2163 64.8621 56.0109 65.698 55.7178 66.5048C55.5092 67.0845 55.189 67.6177 54.7752 68.0743C54.5047 68.3927 54.1563 68.6357 53.7639 68.7794C53.3716 68.9232 52.9487 68.9628 52.5365 68.8943C52.2719 68.8444 52.0285 68.7162 51.8377 68.5263C51.6469 68.3363 51.5176 68.0935 51.4666 67.8292C51.3616 67.4032 51.2782 66.9722 51.2168 66.5378C51.0857 65.8131 50.8623 65.1083 50.5522 64.4404C50.4956 64.2265 50.3834 64.0313 50.227 63.8748C50.1549 63.9688 50.102 64.0761 50.0715 64.1906C49.7532 65.0443 49.5042 65.9222 49.3268 66.8158C49.2001 67.4671 49.1088 68.1248 49.0534 68.7859C49.0237 69.3056 48.9254 69.8191 48.7612 70.313C48.7028 70.4742 48.6105 70.621 48.4907 70.7436C48.3708 70.8662 48.2261 70.9617 48.0663 71.0237C47.9065 71.0858 47.7352 71.1129 47.5641 71.1033C47.3929 71.0938 47.2258 71.0477 47.0739 70.9681C46.7244 70.7744 46.4168 70.5133 46.1689 70.1999C45.3771 69.2101 44.6937 68.1402 43.9396 67.1222C43.5484 66.599 43.1902 66.0523 42.8179 65.515C42.7849 65.4726 42.766 65.4254 42.733 65.3877C42.6105 65.2416 42.5257 65.2322 42.4078 65.3877C42.1816 65.6752 41.9365 65.9627 41.7386 66.2644C41.2624 66.931 40.8475 67.6393 40.499 68.3806C40.1258 69.1575 39.8107 69.9609 39.5564 70.7843C39.4111 71.3894 39.0818 71.9344 38.6137 72.3444C38.3793 72.535 38.0863 72.639 37.7842 72.639C37.482 72.639 37.1891 72.535 36.9547 72.3444C36.6082 71.9975 36.3072 71.6079 36.0592 71.185C35.5879 70.445 35.1165 69.7191 34.6452 68.9839L33.3491 66.9007C33.0333 66.3964 32.7175 65.892 32.4065 65.3924C32.2839 65.2039 32.2792 65.2086 32.1142 65.3595C31.4956 65.9568 30.9354 66.6118 30.4411 67.3154C29.9434 67.9914 29.5021 68.7071 29.1214 69.4552C28.9083 69.8401 28.6453 70.1951 28.339 70.511C28.1346 70.6883 27.8804 70.7979 27.6112 70.8249C27.342 70.8519 27.071 70.795 26.8355 70.6618C26.4515 70.3851 26.1422 70.0175 25.9353 69.5919C25.5887 68.8946 25.285 68.1769 25.0256 67.4427C24.7664 66.7781 24.5166 66.1041 24.3045 65.4207C24.0599 64.5763 23.8895 63.712 23.7955 62.8379C23.7359 62.475 23.709 62.1075 23.7154 61.7397C23.7154 61.4758 23.6918 61.4617 23.4608 61.5559C22.673 61.8756 21.9337 62.3039 21.2645 62.8285C20.555 63.3706 19.9321 64.0174 19.4169 64.7467C19.229 65.0017 19.0209 65.2413 18.7948 65.4632C18.581 65.6713 18.2943 65.7878 17.9959 65.7878C17.6975 65.7878 17.4109 65.6713 17.197 65.4632C16.8416 65.103 16.6246 64.629 16.5843 64.1246C16.49 63.6533 16.49 63.149 16.4429 62.6635C16.3833 61.9282 16.3707 61.1899 16.4052 60.453C16.4289 59.7093 16.4997 58.9679 16.6173 58.2331C16.7477 57.3979 16.9415 56.5739 17.197 55.7681C17.3832 55.1045 17.6608 54.47 18.0218 53.8829C18.163 53.6197 18.3731 53.4 18.6297 53.2472C18.8863 53.0944 19.1796 53.0144 19.4782 53.0156C19.6874 53.0309 19.8885 53.1031 20.0596 53.2243C20.2307 53.3456 20.3654 53.5114 20.4491 53.7038C20.5972 54.1307 20.612 54.5926 20.4915 55.0282C20.4261 55.2966 20.3362 55.5585 20.2229 55.8106C19.8163 56.75 19.5281 57.7363 19.3651 58.7469C19.2382 59.416 19.1954 60.0985 19.2378 60.7782C19.318 60.8348 19.3604 60.7782 19.4075 60.7405C19.9112 60.3951 20.4354 60.0803 20.977 59.7979C21.6133 59.4303 22.259 59.0674 22.9235 58.7563C23.4672 58.4722 24.0293 58.225 24.6061 58.0163C24.9234 57.9242 25.2584 57.9113 25.5818 57.9786C25.7414 58.0191 25.8915 58.0907 26.0233 58.1894C26.1552 58.2881 26.2662 58.4119 26.35 58.5536C26.6592 59.02 26.7882 59.5828 26.7129 60.1373C26.6799 60.4389 26.6752 60.7453 26.6281 61.0516C26.5636 61.4028 26.5368 61.7599 26.548 62.1168C26.5784 63.2133 26.8101 64.2948 27.2314 65.3076C27.3443 65.5813 27.4717 65.8488 27.6132 66.1089C27.7074 66.288 27.7687 66.288 27.8959 66.1324C28.1976 65.7459 28.4898 65.3547 28.7962 64.9683C29.1025 64.5818 29.3335 64.3037 29.6163 63.9785C30.1677 63.3422 30.7616 62.7484 31.3648 62.1639C31.7512 61.7727 32.2421 61.501 32.7788 61.3815C32.9768 61.3274 33.1857 61.3273 33.3838 61.3812C33.5819 61.435 33.7619 61.5409 33.9052 61.6879C34.1972 61.994 34.4177 62.361 34.551 62.7625C35.07 64.0984 35.7189 65.3803 36.4881 66.5896C36.7475 67.0183 37.0373 67.4278 37.3553 67.815C37.5438 68.0318 37.5438 68.0413 37.6805 67.815C37.8596 67.4945 38.0387 67.1693 38.2225 66.8488C38.9625 65.5527 39.759 64.2896 40.6262 63.0783C40.8525 62.7625 41.0551 62.4326 41.3097 62.1356C41.5583 61.8249 41.8678 61.5682 42.2193 61.3815C42.3691 61.2978 42.5341 61.2446 42.7046 61.2251C42.8752 61.2056 43.0479 61.2201 43.2128 61.2679C43.3776 61.3157 43.5314 61.3958 43.665 61.5035C43.7987 61.6112 43.9097 61.7443 43.9915 61.8953C44.3874 62.6258 44.7597 63.3658 45.2263 64.0586C45.5867 64.5881 45.9852 65.0906 46.4187 65.5621C46.4525 65.6006 46.4887 65.6368 46.5271 65.6705C46.6733 65.7931 46.7204 65.7836 46.7675 65.5951C46.8524 65.2605 46.9183 64.9211 47.0173 64.5865C47.2058 63.9267 47.3944 63.2715 47.6112 62.6211C47.828 61.9707 48.0259 61.4664 48.2333 60.8914C48.3914 60.3824 48.7256 59.9463 49.176 59.6612C49.3768 59.5455 49.6016 59.4777 49.833 59.463C50.0643 59.4483 50.2959 59.4871 50.5098 59.5764C51.3511 59.9177 52.0532 60.5319 52.5035 61.3203C52.926 61.9526 53.2147 62.6648 53.3518 63.4129C53.3465 63.5522 53.3673 63.6913 53.4131 63.823Z" fill="#08516C"/>
<path d="M47.1493 46.8508H47.2012C47.2363 47.3361 47.4358 47.795 47.7668 48.1517C47.9024 48.377 48.007 48.6195 48.0778 48.8728C48.0906 48.9009 48.0972 48.9314 48.0972 48.9623C48.0972 48.9932 48.0906 49.0238 48.0778 49.0519C47.9804 49.2889 47.9447 49.5467 47.9741 49.8013C47.995 50.2223 48.0874 50.6367 48.2475 51.0267C48.3672 51.3053 48.5637 51.5442 48.8141 51.7152C49.0645 51.8863 49.3584 51.9826 49.6614 51.9929C50.006 52.0151 50.3503 51.9441 50.6579 51.7874C50.9656 51.6306 51.2254 51.3939 51.41 51.1021C51.4666 51.022 51.4902 50.9136 51.5939 50.8665L51.8625 51.0126C52.2255 51.2626 52.644 51.4204 53.0818 51.4721C53.5196 51.5239 53.9633 51.468 54.3746 51.3095C54.4925 51.3472 54.4783 51.4415 54.4783 51.531C54.4783 51.7573 54.4783 52.0023 54.4783 52.205C54.3474 52.4045 54.1672 52.5669 53.9552 52.6763C53.5133 52.9488 53.0997 53.2646 52.7203 53.619C52.2073 54.059 51.6534 54.4488 51.066 54.7831C49.2247 55.8195 47.2657 56.6312 45.2311 57.201C44.5005 57.4354 43.7579 57.6305 43.0064 57.7854C42.0638 57.9692 41.1212 58.0871 40.1785 58.1907C38.9013 58.3321 37.6193 58.252 36.342 58.2756C36.3013 58.2801 36.2602 58.2801 36.2195 58.2756C36.2571 58.0324 36.2666 57.7857 36.2477 57.5403C36.2315 57.1189 36.0963 56.7107 35.8577 56.3629C35.6192 56.0151 35.2871 55.7419 34.8998 55.5749C34.5231 55.4156 34.1293 55.3001 33.7262 55.2309C33.4584 55.1692 33.1809 55.1615 32.9101 55.2083C32.6393 55.255 32.3804 55.3552 32.1488 55.5031C31.9171 55.651 31.7172 55.8435 31.5608 56.0695C31.4043 56.2954 31.2945 56.5503 31.2376 56.8192C31.1749 57.13 31.1355 57.4451 31.1198 57.7618C30.8148 57.7359 30.5131 57.679 30.2196 57.5922C29.6346 57.4545 29.0585 57.2814 28.4946 57.0737C28.0176 56.8879 27.5586 56.6592 27.123 56.3903C26.1894 55.8523 25.3129 55.2206 24.5072 54.505C24.4412 54.4438 24.3799 54.3731 24.314 54.3071C24.5729 54.15 24.8038 53.9509 24.9974 53.7179C25.2072 53.8426 25.4017 53.9913 25.5771 54.161C25.962 54.4725 26.4086 54.699 26.8874 54.8255C27.1903 54.867 27.4962 54.8827 27.8017 54.8727C28.2075 54.8719 28.5974 54.7149 28.8905 54.4343C29.1438 54.2086 29.34 53.9261 29.4629 53.6098C29.5858 53.2935 29.6319 52.9526 29.5974 52.615C29.5873 52.2467 29.5073 51.8837 29.3618 51.5452C29.4096 51.5317 29.4585 51.5222 29.5079 51.5169C29.8678 51.4982 30.2139 51.3725 30.5019 51.1558C30.79 50.9392 31.0067 50.6415 31.1245 50.3009C31.2898 49.8235 31.2747 49.3021 31.0821 48.8351C31.6901 48.9058 32.2981 48.967 32.9014 49.0472C33.5047 49.1273 34.2211 49.2074 34.8809 49.2546C35.5748 49.2923 36.2702 49.2923 36.9641 49.2546C37.3412 49.2546 37.7135 49.1886 38.0906 49.1509C37.9259 49.3448 37.8022 49.57 37.7268 49.813C37.6515 50.056 37.6261 50.3118 37.6523 50.5648C37.6745 50.9552 37.8252 51.3273 38.081 51.6231C38.3367 51.919 38.6831 52.1219 39.0662 52.2003C39.1788 52.2056 39.2893 52.2328 39.3914 52.2804C39.3986 52.3509 39.3986 52.422 39.3914 52.4925C39.3043 52.8518 39.3043 53.2267 39.3914 53.586C39.4542 53.9391 39.6179 54.2665 39.8627 54.5286C40.3664 55.0129 41.0353 55.2875 41.7339 55.2968C42.3969 55.3392 43.0618 55.2495 43.6899 55.0329C44.0103 54.9292 44.3214 54.802 44.6325 54.6888C44.6325 54.769 44.6325 54.8538 44.6325 54.9339C44.621 55.0862 44.6403 55.2392 44.6892 55.3838C44.7382 55.5285 44.8158 55.6617 44.9174 55.7757C45.0191 55.8896 45.1426 55.9819 45.2807 56.047C45.4188 56.1121 45.5687 56.1487 45.7212 56.1546C46.0978 56.2088 46.4817 56.1749 46.843 56.0557C47.5449 55.8262 48.1996 55.4717 48.7754 55.0093C48.9804 54.8528 49.1453 54.6498 49.2564 54.4169C49.3675 54.1841 49.4216 53.9282 49.4142 53.6703C49.4068 53.4125 49.3382 53.16 49.214 52.9339C49.0898 52.7078 48.9136 52.5145 48.7 52.37C48.4571 52.1813 48.1767 52.0466 47.8776 51.9751C47.5784 51.9036 47.2675 51.8968 46.9655 51.9552C46.9938 51.6842 46.9938 51.4109 46.9655 51.1398C46.891 50.5936 46.6235 50.0921 46.2114 49.7259C45.7079 49.2829 45.0579 49.0427 44.3874 49.0519C44.3803 48.9326 44.3803 48.813 44.3874 48.6937C44.3407 48.3912 44.2452 48.0983 44.1046 47.8265C44.1592 47.7996 44.2159 47.7775 44.2743 47.7605C45.0469 47.589 45.8049 47.3574 46.5413 47.0676L47.1493 46.8508Z" fill="#EAE1B6"/>
<path d="M31.1152 57.7571C31.131 57.4404 31.1704 57.1253 31.2331 56.8144C31.2899 56.5455 31.3998 56.2907 31.5562 56.0647C31.7126 55.8387 31.9125 55.6462 32.1442 55.4983C32.3759 55.3504 32.6347 55.2502 32.9055 55.2035C33.1764 55.1567 33.4538 55.1644 33.7216 55.2261C34.1247 55.2953 34.5185 55.4108 34.8952 55.5702C35.2825 55.7371 35.6146 56.0103 35.8532 56.3581C36.0917 56.7059 36.2269 57.1141 36.2432 57.5355C36.262 57.7809 36.2525 58.0276 36.2149 58.2708C36.1859 58.3239 36.1607 58.3791 36.1395 58.4358C35.9997 58.8311 35.7462 59.1763 35.4107 59.4279C35.0753 59.6795 34.6729 59.8263 34.2542 59.8497C33.4193 59.9103 32.5886 59.686 31.8976 59.2134C31.6781 59.0612 31.4958 58.8613 31.3644 58.6287C31.233 58.3961 31.1559 58.1368 31.1388 57.8702C31.1388 57.8372 31.1247 57.7995 31.1152 57.7571ZM34.0798 55.8718C33.8874 55.8631 33.6953 55.8955 33.5163 55.9669C33.3374 56.0382 33.1756 56.1468 33.0419 56.2854C32.9081 56.4241 32.8054 56.5896 32.7406 56.771C32.6758 56.9524 32.6503 57.1456 32.6659 57.3376C32.6733 57.716 32.8292 58.0763 33.0998 58.3408C33.3705 58.6053 33.7343 58.7529 34.1128 58.7515C34.4878 58.7338 34.8421 58.5747 35.1044 58.3062C35.3667 58.0377 35.5177 57.6799 35.5268 57.3046C35.5316 57.115 35.4971 56.9265 35.4256 56.7508C35.3541 56.5752 35.2471 56.4162 35.1112 56.2839C34.9753 56.1515 34.8136 56.0487 34.6361 55.9819C34.4586 55.915 34.2692 55.8856 34.0798 55.8954V55.8718Z" fill="#BB1E1A"/>
<path d="M20.9679 50.6591C20.8745 50.0537 20.821 49.4428 20.8076 48.8304C20.8405 48.6755 20.8532 48.5171 20.8453 48.359C20.8474 47.9225 20.8996 47.4876 21.0009 47.0629L21.1187 47.0912C21.4376 47.215 21.7841 47.2497 22.1212 47.1915C22.4583 47.1334 22.7732 46.9847 23.0322 46.7613C23.1595 46.6576 23.2396 46.5115 23.3622 46.4031C23.8806 46.6859 24.3802 47.0017 24.9222 47.2326C25.1655 47.3619 25.4235 47.4615 25.6905 47.5295C25.6905 47.6191 25.7235 47.7133 25.7423 47.8076C25.582 47.8099 25.4226 47.7844 25.271 47.7322C24.9385 47.662 24.5927 47.6928 24.2778 47.8204C23.9629 47.948 23.6933 48.1668 23.5036 48.4486C23.1345 48.9598 22.9667 49.589 23.0322 50.216C22.7985 50.1972 22.5637 50.1972 22.33 50.216C22.1027 50.25 21.8894 50.3464 21.7138 50.4945C21.5382 50.6427 21.4072 50.8367 21.3355 51.055C21.1187 51.0173 21.0621 50.824 20.9679 50.6591Z" fill="#EAE1B6"/>
<path d="M21.335 51.0549C21.4078 50.8412 21.5375 50.6514 21.7103 50.506C21.8831 50.3606 22.0923 50.2652 22.3153 50.2301C22.549 50.2112 22.7839 50.2112 23.0176 50.2301C23.0429 50.296 23.0634 50.3638 23.0788 50.4327C23.143 50.7563 23.2409 51.0723 23.3711 51.3754C23.7295 52.1591 24.2206 52.875 24.8227 53.4916C24.8934 53.5623 24.983 53.6236 24.9924 53.7367C24.7989 53.9696 24.5679 54.1687 24.309 54.3258C24.0986 54.1821 23.907 54.0127 23.7387 53.8215C22.9975 53.1142 22.3164 52.3465 21.7026 51.5262C21.5848 51.3707 21.4387 51.2246 21.335 51.0549Z" fill="#F099C0"/>
<path d="M47.1492 46.8508L46.5553 47.0865C45.8189 47.3762 45.0609 47.6079 44.2883 47.7793C44.2299 47.7964 44.1731 47.8184 44.1186 47.8453C44.0723 47.8037 44.0282 47.7596 43.9866 47.7133C43.7485 47.4164 43.4261 47.1986 43.0619 47.0884C42.6976 46.9782 42.3086 46.9808 41.9458 47.0959C41.449 47.2417 40.9735 47.4525 40.5319 47.7227C39.7118 48.1941 38.8021 48.4769 38.1093 49.1367C37.7322 49.1744 37.3599 49.2262 36.9828 49.2404C36.2889 49.2781 35.5935 49.2781 34.8996 49.2404C34.2398 49.1933 33.5799 49.1226 32.9201 49.033C32.2602 48.9435 31.7088 48.8916 31.1008 48.8209C30.7049 48.2978 30.309 47.7793 29.9225 47.2514C29.7447 47.0605 29.5868 46.8521 29.4512 46.6293C29.7723 46.6469 30.0895 46.7088 30.3938 46.8131C31.8446 47.1727 33.3415 47.311 34.8336 47.2231C35.0574 47.2231 35.2809 47.2089 35.5029 47.1807C36.224 47.1572 36.9168 47.0488 37.6427 46.9592C38.4533 46.8508 39.264 46.7424 40.0747 46.6151C42.124 46.3295 44.1487 45.8883 46.1311 45.2955C46.3106 45.2177 46.499 45.1623 46.692 45.1305C46.8334 45.6018 46.9748 46.0213 47.1115 46.469C47.1553 46.5912 47.1683 46.7224 47.1492 46.8508V46.8508Z" fill="#F099C0"/>
<path d="M29.4515 46.6293C29.5872 46.8521 29.7451 47.0605 29.9228 47.2514C30.3093 47.7793 30.7052 48.2977 31.1011 48.8209C31.2937 49.2879 31.3088 49.8093 31.1435 50.2867C31.0285 50.6346 30.8105 50.9393 30.5185 51.1607C30.2264 51.382 29.8741 51.5095 29.5081 51.5263C29.4587 51.5316 29.4098 51.541 29.362 51.5545L29.0085 51.5263C28.8979 51.4559 28.7746 51.4079 28.6456 51.3849C28.4982 51.2791 28.3403 51.1891 28.1742 51.1162L27.4908 50.3244C27.2727 49.9962 27.0351 49.6814 26.7791 49.3818C26.7488 49.3417 26.7055 49.3133 26.6566 49.3016C26.6379 49.2224 26.5989 49.1493 26.5435 49.0896C26.227 48.7068 25.9551 48.2894 25.7328 47.8453L25.681 47.5483C25.681 47.4635 25.681 47.3834 25.681 47.3033C25.6761 47.024 25.7312 46.7469 25.8426 46.4908C25.954 46.2347 26.1191 46.0054 26.3267 45.8186C26.4234 45.8432 26.524 45.8484 26.6227 45.8338C26.7214 45.8192 26.8162 45.7852 26.9017 45.7338C27.3303 45.5595 27.8008 45.5152 28.2544 45.6065C28.4151 45.6469 28.5577 45.7398 28.6597 45.8704L29.4515 46.6293Z" fill="#E75519"/>
<path d="M26.3642 45.8186C26.1589 46.0033 25.9953 46.2295 25.884 46.4822C25.7727 46.7348 25.7162 47.0083 25.7184 47.2844C25.7184 47.3645 25.7184 47.4446 25.7184 47.5294C25.4514 47.4615 25.1935 47.3618 24.9502 47.2325C24.4082 47.0016 23.9086 46.6858 23.3901 46.403V46.2946C23.4509 46.2576 23.4948 46.1985 23.5127 46.1296C23.6775 45.7681 23.9187 45.4465 24.2197 45.187C24.272 45.1387 24.3208 45.0867 24.3658 45.0315C24.4049 45.0269 24.4444 45.0269 24.4836 45.0315C25.0727 45.2766 25.676 45.5028 26.2793 45.7102C26.3109 45.7436 26.3393 45.7799 26.3642 45.8186V45.8186Z" fill="#F099C0"/>
<path d="M24.347 45.0598C24.302 45.115 24.2532 45.167 24.2009 45.2153C23.8999 45.4748 23.6587 45.7964 23.4939 46.1579C23.476 46.2268 23.4321 46.2859 23.3713 46.3229C23.2698 46.3124 23.1733 46.2731 23.0933 46.2098C22.5733 45.8252 22.0876 45.3962 21.6416 44.9278L21.684 44.6921L22.2496 43.5704C22.2678 43.5139 22.2789 43.4553 22.2826 43.396C22.3674 43.3677 22.391 43.4384 22.4193 43.4856C22.835 44.156 23.4568 44.6736 24.1914 44.9608C24.2668 44.9985 24.3093 45.0032 24.347 45.0598Z" fill="#DF224C"/>
<path d="M39.646 13.4202C38.883 13.4051 38.1468 13.1365 37.5534 12.6567C37.3148 12.4805 37.1224 12.2493 36.9925 11.9827C36.8469 11.6762 36.7975 11.3327 36.8511 10.9976C36.8899 10.6121 36.9737 10.2325 37.1009 9.86645C37.2467 9.51754 37.5079 9.22928 37.8408 9.04996C38.1737 8.87064 38.5581 8.81113 38.9296 8.8814C39.6976 8.98328 40.4179 9.31142 40.9987 9.82404C41.1172 9.92452 41.2163 10.0459 41.2909 10.1822C41.5159 10.6369 41.6015 11.1479 41.5369 11.651C41.4723 12.1542 41.2605 12.627 40.928 13.0101C40.7532 13.1616 40.5494 13.2761 40.329 13.3465C40.1087 13.417 39.8763 13.4421 39.646 13.4202V13.4202Z" fill="#0FB0D2"/>
<path d="M51.5326 48.0197C51.5114 47.5284 51.6097 47.0394 51.819 46.5944C52.0284 46.1495 52.3425 45.762 52.7345 45.4651C53.0054 45.2211 53.3275 45.0408 53.6771 44.9373C53.9767 44.8667 54.2867 44.8523 54.5915 44.8948C54.7206 44.9184 54.8379 44.9856 54.9236 45.085C55.0094 45.1845 55.0585 45.3103 55.0628 45.4416C55.0699 45.5653 55.0358 45.6879 54.9659 45.7902C54.896 45.8925 54.7942 45.9688 54.6763 46.0071C54.5489 46.0417 54.4171 46.0575 54.2851 46.0543C53.9839 46.0585 53.6951 46.1744 53.4744 46.3795C53.3849 46.469 53.3755 46.5397 53.4744 46.6199C54.0284 46.9791 54.4619 47.4963 54.7187 48.1045C54.7602 48.1977 54.7949 48.2938 54.8224 48.392C54.8646 48.5192 54.8603 48.6572 54.8103 48.7815C54.7602 48.9058 54.6676 49.0083 54.549 49.0707C54.4251 49.138 54.2808 49.1574 54.1435 49.1253C54.0062 49.0931 53.8855 49.0116 53.8044 48.8963C53.6925 48.7254 53.5978 48.5438 53.5216 48.3543C53.4147 48.0974 53.2343 47.8777 53.0031 47.7227C52.8005 47.6096 52.7203 47.6426 52.7109 47.8736C52.6882 48.1192 52.7009 48.3668 52.7486 48.6088C52.7754 48.7025 52.7799 48.8011 52.7619 48.8968C52.7439 48.9925 52.7039 49.0827 52.6449 49.1603C52.5929 49.2334 52.5235 49.2925 52.4429 49.3322C52.3624 49.3719 52.2733 49.3909 52.1836 49.3877C52.0938 49.3844 52.0064 49.3589 51.9289 49.3134C51.8515 49.268 51.7866 49.204 51.74 49.1273C51.6114 48.8932 51.5434 48.6308 51.542 48.3637C51.5317 48.2494 51.5286 48.1344 51.5326 48.0197Z" fill="#6E2B38"/>
<path d="M21.6842 44.7016L21.6417 44.9373C21.6102 44.9747 21.5833 45.0159 21.5616 45.0598C21.3148 45.715 21.1302 46.392 21.0102 47.0818C20.9089 47.5064 20.8567 47.9413 20.8546 48.3779C20.8625 48.536 20.8498 48.6944 20.8169 48.8492C20.7289 48.8564 20.6403 48.8438 20.5578 48.8121C20.4753 48.7805 20.4009 48.7307 20.3403 48.6664C20.2796 48.6021 20.2342 48.525 20.2074 48.4408C20.1806 48.3566 20.1731 48.2675 20.1854 48.1799C20.1518 47.6802 20.1931 47.1782 20.3079 46.6906C20.2277 46.7101 20.1546 46.7518 20.0971 46.811C20.0395 46.8702 19.9999 46.9445 19.9827 47.0252C19.9546 47.127 19.9053 47.2217 19.8378 47.303C19.7704 47.3842 19.6864 47.4502 19.5915 47.4965C19.4771 47.557 19.3438 47.5711 19.2192 47.536C19.0946 47.501 18.9883 47.4193 18.9222 47.308C18.8384 47.1895 18.7935 47.0478 18.7935 46.9027C18.7935 46.7575 18.8384 46.6159 18.9222 46.4973C19.0309 46.3222 19.1522 46.1552 19.2852 45.9977C19.636 45.5656 20.0643 45.2028 20.5483 44.9278C20.9007 44.7545 21.2923 44.6765 21.6842 44.7016Z" fill="#6E2B38"/>
<path d="M38.0905 49.1414C38.7833 48.4769 39.693 48.1988 40.5131 47.7275C40.9548 47.4572 41.4302 47.2464 41.927 47.1006C42.2898 46.9855 42.6789 46.9829 43.0431 47.0931C43.4074 47.2033 43.7297 47.4212 43.9678 47.718C44.0094 47.7643 44.0535 47.8084 44.0998 47.85C44.2404 48.1219 44.3359 48.4148 44.3826 48.7172C44.3755 48.8365 44.3755 48.9561 44.3826 49.0754C44.3431 49.304 44.2684 49.525 44.1611 49.7306C44.0621 49.8908 43.9537 50.0511 43.85 50.2019C43.485 50.4667 43.0913 50.6896 42.6764 50.8664C42.1649 51.0778 41.6647 51.3153 41.1776 51.5781C41.0429 51.6297 40.9231 51.7139 40.8289 51.8232C40.3834 52.0688 39.8895 52.2137 39.3819 52.2474C39.2798 52.1998 39.1693 52.1726 39.0567 52.1673C38.6736 52.0889 38.3272 51.8859 38.0714 51.5901C37.8157 51.2943 37.665 50.9222 37.6428 50.5318C37.6211 50.2819 37.6496 50.0302 37.7265 49.7915C37.8034 49.5527 37.9271 49.3317 38.0905 49.1414Z" fill="#E75519"/>
<path d="M29.0083 51.5263L29.3617 51.5546C29.5073 51.8931 29.5872 52.2562 29.5974 52.6245C29.6319 52.962 29.5858 53.303 29.4629 53.6192C29.34 53.9355 29.1438 54.2181 28.8904 54.4438C28.5973 54.7244 28.2074 54.8813 27.8017 54.8821C27.4961 54.8922 27.1902 54.8764 26.8873 54.835C26.4096 54.719 25.9616 54.5038 25.5723 54.2034C25.397 54.0337 25.2024 53.885 24.9926 53.7604C24.9926 53.6473 24.8937 53.586 24.823 53.5153C24.2208 52.8987 23.7297 52.1828 23.3713 51.3991C23.2412 51.0959 23.1432 50.78 23.0791 50.4564C23.0636 50.3875 23.0432 50.3197 23.0178 50.2538C22.9523 49.6267 23.1201 48.9975 23.4891 48.4863C23.678 48.1993 23.9491 47.976 24.267 47.8457C24.5849 47.7154 24.9347 47.684 25.2707 47.7558C25.4223 47.808 25.5817 47.8335 25.742 47.8312C25.9643 48.2753 26.2362 48.6927 26.5527 49.0755C26.6081 49.1352 26.6471 49.2083 26.6658 49.2876C26.4584 49.2876 26.251 49.2876 26.0484 49.2876C25.7088 49.3058 25.3818 49.4225 25.1073 49.6234C24.8328 49.8242 24.6227 50.1005 24.5025 50.4187C24.4185 50.6717 24.3694 50.9349 24.3563 51.2011C24.3272 51.5135 24.369 51.8285 24.4786 52.1225C24.5882 52.4165 24.7628 52.682 24.9894 52.899C25.216 53.1161 25.4887 53.2792 25.7871 53.3761C26.0856 53.473 26.4021 53.5013 26.7129 53.4587C27.1282 53.412 27.5203 53.2434 27.8399 52.9742C28.1594 52.7049 28.3922 52.3471 28.5087 51.9458C28.5699 51.7714 28.5511 51.5782 28.6265 51.4085C28.6786 51.4533 28.7394 51.487 28.8051 51.5072C28.8708 51.5275 28.9399 51.534 29.0083 51.5263V51.5263Z" fill="#FCFCFC"/>
<path d="M43.874 50.2065C43.9777 50.0463 44.0861 49.886 44.1851 49.7352C44.2924 49.5296 44.3671 49.3086 44.4066 49.0801C45.0771 49.0709 45.7271 49.3111 46.2306 49.7541C46.6427 50.1203 46.9101 50.6218 46.9847 51.168C47.013 51.4391 47.013 51.7124 46.9847 51.9834C46.8816 52.4553 46.663 52.8942 46.3484 53.2607C45.932 53.7544 45.4386 54.1778 44.8873 54.5144C44.8025 54.5662 44.7271 54.6369 44.6422 54.6982C44.3265 54.8113 44.0154 54.9386 43.6996 55.0423C43.0715 55.2588 42.4067 55.3485 41.7436 55.3062C41.0513 55.2871 40.3915 55.0078 39.8961 54.5238C39.6512 54.2617 39.4875 53.9343 39.4247 53.5812C39.3376 53.2219 39.3376 52.847 39.4247 52.4877C39.4319 52.4172 39.4319 52.3461 39.4247 52.2756C39.9323 52.2419 40.4263 52.0971 40.8717 51.8514C40.8717 52.0447 40.8717 52.2379 40.8717 52.4312C40.8648 52.7195 40.9211 53.0059 41.0367 53.2701C41.1981 53.5809 41.4406 53.8422 41.7385 54.0264C42.0364 54.2106 42.3785 54.3108 42.7287 54.3164C43.0765 54.3281 43.4246 54.3139 43.7703 54.274C44.0215 54.26 44.2669 54.1935 44.4907 54.0786C44.7145 53.9637 44.9117 53.803 45.0694 53.6071C45.2272 53.4111 45.342 53.1842 45.4064 52.941C45.4709 52.6979 45.4835 52.4439 45.4435 52.1955C45.3937 51.8594 45.2761 51.537 45.0978 51.2477C44.9196 50.9585 44.6844 50.7085 44.4066 50.5129C44.235 50.4007 44.0572 50.2984 43.874 50.2065Z" fill="#FCFCFC"/>
<path d="M44.637 54.6699C44.7219 54.6086 44.7973 54.5379 44.8821 54.486C45.4334 54.1494 45.9268 53.7261 46.3432 53.2323C46.6577 52.8658 46.8764 52.4269 46.9795 51.9551C47.2814 51.8967 47.5924 51.9034 47.8915 51.975C48.1907 52.0465 48.4711 52.1811 48.7139 52.3698C48.9276 52.5144 49.1038 52.7077 49.228 52.9338C49.3522 53.1599 49.4208 53.4123 49.4282 53.6702C49.4355 53.9281 49.3815 54.184 49.2704 54.4168C49.1593 54.6496 48.9944 54.8527 48.7893 55.0092C48.2092 55.4659 47.5514 55.814 46.8475 56.0367C46.4863 56.156 46.1023 56.1898 45.7258 56.1357C45.5732 56.1298 45.4234 56.0932 45.2853 56.028C45.1472 55.9629 45.0236 55.8706 44.922 55.7567C44.8203 55.6427 44.7427 55.5095 44.6938 55.3648C44.6448 55.2202 44.6255 55.0672 44.637 54.9149C44.6323 54.8254 44.637 54.75 44.637 54.6699Z" fill="#F099C0"/>
<path d="M34.0796 55.8954C34.2694 55.8856 34.4592 55.9151 34.637 55.9823C34.8148 56.0494 34.9768 56.1527 35.1127 56.2855C35.2487 56.4183 35.3556 56.5779 35.4268 56.7541C35.4981 56.9303 35.532 57.1194 35.5265 57.3094C35.5174 57.6846 35.3665 58.0425 35.1042 58.3109C34.8418 58.5794 34.4875 58.7385 34.1126 58.7563C33.7341 58.7576 33.3703 58.6101 33.0996 58.3456C32.8289 58.0811 32.6731 57.7207 32.6656 57.3423C32.6529 57.1518 32.6804 56.9608 32.7465 56.7817C32.8126 56.6025 32.9157 56.4394 33.0492 56.3028C33.1826 56.1662 33.3434 56.0594 33.5209 55.9892C33.6985 55.919 33.8888 55.887 34.0796 55.8954V55.8954Z" fill="#DF224C"/>
<path d="M21.0098 47.0818C21.1298 46.392 21.3144 45.715 21.5612 45.0598C21.5828 45.0159 21.6097 44.9747 21.6413 44.9373C22.0881 45.3992 22.5738 45.8218 23.093 46.2004C23.1731 46.2637 23.2695 46.303 23.3711 46.3135V46.4219C23.2485 46.5303 23.1684 46.6764 23.0411 46.7801C22.7821 47.0035 22.4672 47.1523 22.1301 47.2104C21.793 47.2685 21.4465 47.2338 21.1276 47.11L21.0098 47.0818Z" fill="#E75519"/>
<path d="M28.6546 51.4179C28.5792 51.5876 28.5981 51.7808 28.5368 51.9552C28.4203 52.3565 28.1876 52.7144 27.868 52.9836C27.5485 53.2528 27.1563 53.4214 26.7411 53.4682C26.4302 53.5107 26.1137 53.4825 25.8153 53.3855C25.5169 53.2886 25.2442 53.1255 25.0176 52.9085C24.791 52.6914 24.6164 52.426 24.5068 52.132C24.3971 51.8379 24.3553 51.523 24.3845 51.2106C24.3975 50.9443 24.4467 50.6811 24.5306 50.4282C24.6508 50.11 24.861 49.8336 25.1354 49.6328C25.4099 49.432 25.7369 49.3153 26.0765 49.297C26.2792 49.297 26.4866 49.297 26.694 49.297C26.7429 49.3087 26.7862 49.337 26.8165 49.3771C27.0724 49.6768 27.3101 49.9915 27.5282 50.3198C27.3962 50.3198 27.2643 50.3198 27.1323 50.3198C27.0278 50.311 26.9226 50.3253 26.8242 50.3617C26.7258 50.398 26.6365 50.4555 26.5628 50.5302C26.4891 50.6048 26.4327 50.6947 26.3975 50.7935C26.3623 50.8924 26.3493 50.9977 26.3593 51.1021C26.3735 51.2038 26.3735 51.3069 26.3593 51.4085C26.3485 51.5305 26.3688 51.6533 26.4183 51.7654C26.4677 51.8775 26.5447 51.9752 26.6421 52.0495C26.7615 52.1446 26.9022 52.2093 27.0522 52.238C27.2539 52.2886 27.4666 52.2733 27.659 52.1944C27.8515 52.1156 28.0137 51.9773 28.1221 51.7997C28.2052 51.5804 28.2358 51.3448 28.2116 51.1116C28.3776 51.1845 28.5356 51.2745 28.6829 51.3802C28.6756 51.3838 28.6692 51.3891 28.6643 51.3957C28.6593 51.4022 28.656 51.4099 28.6546 51.4179V51.4179Z" fill="#142839"/>
<path d="M28.1928 51.0927C28.2171 51.3259 28.1864 51.5615 28.1033 51.7808C27.995 51.9584 27.8327 52.0967 27.6403 52.1755C27.4478 52.2544 27.2352 52.2696 27.0334 52.2191C26.8835 52.1904 26.7427 52.1257 26.6233 52.0306C26.5259 51.9563 26.4489 51.8585 26.3995 51.7465C26.35 51.6344 26.3298 51.5116 26.3406 51.3896C26.3547 51.288 26.3547 51.1849 26.3406 51.0832C26.3309 50.9805 26.3435 50.8769 26.3776 50.7795C26.4117 50.6821 26.4664 50.5932 26.538 50.5189C26.6096 50.4446 26.6964 50.3867 26.7925 50.349C26.8886 50.3114 26.9916 50.295 27.0947 50.3008C27.2266 50.3008 27.3586 50.3008 27.4906 50.3008L28.1928 51.0927Z" fill="#0C3048"/>
<path d="M28.6549 51.4179C28.6494 51.4095 28.6465 51.3996 28.6465 51.3896C28.6465 51.3796 28.6494 51.3697 28.6549 51.3613C28.7839 51.3843 28.9072 51.4323 29.0178 51.5027C28.8904 51.5223 28.7604 51.4919 28.6549 51.4179V51.4179Z" fill="#EAE1B6"/>
<path d="M43.8736 50.2065C44.0483 50.2915 44.2182 50.3859 44.3826 50.4893C44.6604 50.6849 44.8956 50.9349 45.0739 51.2242C45.2521 51.5134 45.3697 51.8359 45.4195 52.1719C45.4595 52.4203 45.4469 52.6743 45.3825 52.9175C45.318 53.1606 45.2032 53.3876 45.0455 53.5835C44.8877 53.7795 44.6906 53.9401 44.4668 54.055C44.243 54.1699 43.9975 54.2365 43.7463 54.2505C43.4007 54.2904 43.0525 54.3045 42.7047 54.2929C42.3546 54.2873 42.0124 54.187 41.7145 54.0029C41.4167 53.8187 41.1742 53.5573 41.0127 53.2465C40.8971 52.9823 40.8408 52.6959 40.8477 52.4076C40.8477 52.2144 40.8477 52.0211 40.8477 51.8279C40.9419 51.7186 41.0618 51.6344 41.1965 51.5828C41.6836 51.32 42.1838 51.0825 42.6953 50.8711C43.1118 50.6946 43.5071 50.4717 43.8736 50.2065V50.2065ZM42.4078 52.0635C42.4027 52.2046 42.4259 52.3453 42.4761 52.4773C42.5263 52.6092 42.6024 52.7298 42.7 52.8318C42.8756 53.0023 43.0978 53.1171 43.3385 53.1615C43.5793 53.206 43.8278 53.1782 44.0527 53.0816C44.1662 53.0347 44.269 52.9651 44.3548 52.8772C44.4406 52.7893 44.5075 52.6848 44.5516 52.5701C44.5957 52.4555 44.616 52.3331 44.6113 52.2103C44.6065 52.0876 44.5768 51.9671 44.524 51.8562C44.5073 51.82 44.4946 51.782 44.4863 51.743C44.4707 51.6265 44.4317 51.5142 44.3718 51.413C44.3119 51.3118 44.2322 51.2237 44.1375 51.1539C43.9635 51.0134 43.7508 50.9291 43.5277 50.9123C43.3046 50.8954 43.0817 50.9468 42.8885 51.0596C42.7236 51.1664 42.5915 51.3166 42.5066 51.4938C42.4218 51.671 42.3876 51.8681 42.4078 52.0635V52.0635Z" fill="#142839"/>
<path d="M42.408 52.0635C42.3893 51.8651 42.4266 51.6653 42.5158 51.487C42.6049 51.3087 42.7423 51.159 42.9124 51.0549C43.1055 50.9421 43.3285 50.8907 43.5515 50.9075C43.7746 50.9244 43.9873 51.0087 44.1613 51.1492C44.256 51.219 44.3357 51.3071 44.3956 51.4083C44.4555 51.5095 44.4945 51.6218 44.5101 51.7383C44.5184 51.7773 44.5311 51.8153 44.5478 51.8515C44.6006 51.9624 44.6303 52.0829 44.6351 52.2056C44.6398 52.3283 44.6195 52.4508 44.5754 52.5654C44.5313 52.6801 44.4644 52.7846 44.3786 52.8725C44.2928 52.9604 44.19 53.03 44.0765 53.0769C43.8516 53.1735 43.6031 53.2013 43.3623 53.1568C43.1216 53.1124 42.8994 52.9976 42.7238 52.8271C42.6226 52.7276 42.5424 52.6087 42.4881 52.4775C42.4339 52.3463 42.4066 52.2055 42.408 52.0635V52.0635Z" fill="#0C3048"/>
<path opacity="0.25" d="M59.7617 36.1896C60.4949 36.1665 61.225 36.2933 61.9075 36.5624C62.5899 36.8315 63.2101 37.2371 63.7302 37.7543C64.286 38.3502 64.7014 39.0628 64.946 39.84C65.1907 40.6172 65.2584 41.4393 65.1442 42.246" stroke="#56C3E8" stroke-width="8" stroke-miterlimit="10" stroke-linecap="round"/>
<path opacity="0.4" d="M63.0848 93.2096H30.8796C29.2502 93.2096 27.9292 94.5295 27.9292 96.1577C27.9292 97.7859 29.2502 99.1058 30.8796 99.1058H63.0848C64.7143 99.1058 66.0353 97.7859 66.0353 96.1577C66.0353 94.5295 64.7143 93.2096 63.0848 93.2096Z" fill="black"/>
<path d="M61.1004 91.2866H28.8953C27.2658 91.2866 25.9448 92.6065 25.9448 94.2347C25.9448 95.8629 27.2658 97.1828 28.8953 97.1828H61.1004C62.7299 97.1828 64.0509 95.8629 64.0509 94.2347C64.0509 92.6065 62.7299 91.2866 61.1004 91.2866Z" fill="#16516C"/>
<path opacity="0.4" d="M63.0848 74.1448H30.8796C29.2502 74.1448 27.9292 75.4647 27.9292 77.0929C27.9292 78.7211 29.2502 80.041 30.8796 80.041H63.0848C64.7143 80.041 66.0353 78.7211 66.0353 77.0929C66.0353 75.4647 64.7143 74.1448 63.0848 74.1448Z" fill="black"/>
<path d="M61.1004 72.0521H28.8953C27.2658 72.0521 25.9448 73.372 25.9448 75.0002C25.9448 76.6284 27.2658 77.9483 28.8953 77.9483H61.1004C62.7299 77.9483 64.0509 76.6284 64.0509 75.0002C64.0509 73.372 62.7299 72.0521 61.1004 72.0521Z" fill="#16516C"/>
<path opacity="0.4" d="M63.0848 112.161H30.8796C29.2502 112.161 27.9292 113.481 27.9292 115.109C27.9292 116.738 29.2502 118.058 30.8796 118.058H63.0848C64.7143 118.058 66.0353 116.738 66.0353 115.109C66.0353 113.481 64.7143 112.161 63.0848 112.161Z" fill="black"/>
<path d="M61.1004 110.069H28.8953C27.2658 110.069 25.9448 111.389 25.9448 113.017C25.9448 114.645 27.2658 115.965 28.8953 115.965H61.1004C62.7299 115.965 64.0509 114.645 64.0509 113.017C64.0509 111.389 62.7299 110.069 61.1004 110.069Z" fill="#16516C"/>
<path opacity="0.4" d="M23.3667 92.8042V92.9315C23.3631 94.7372 22.7146 96.4823 21.538 97.852L19.992 99.6807L18.0172 102.037C17.8415 102.239 17.624 102.4 17.3798 102.509C17.1356 102.618 16.8707 102.673 16.6033 102.669C16.3356 102.674 16.0701 102.62 15.8257 102.511C15.5813 102.402 15.364 102.24 15.1893 102.037L13.2145 99.6807L11.6638 97.852C10.4907 96.4805 9.84412 94.7362 9.83984 92.9315V92.8042C9.8694 91.9357 10.2404 91.114 10.8722 90.5175C11.5041 89.9209 12.3458 89.5977 13.2145 89.6181C14.101 89.6142 14.955 89.9518 15.5994 90.5607C15.9104 90.848 16.1589 91.1963 16.3292 91.584C16.4995 91.9716 16.588 92.3902 16.5891 92.8136C16.5844 92.7603 16.5844 92.7067 16.5891 92.6534C16.6586 91.8151 17.0456 91.0349 17.6711 90.4725C18.2967 89.9101 19.1134 89.6078 19.9543 89.6275C20.8411 89.6227 21.6954 89.9604 22.3392 90.5702C22.6548 90.8519 22.909 91.1957 23.0857 91.5801C23.2625 91.9645 23.3582 92.3812 23.3667 92.8042V92.8042Z" fill="black"/>
<path d="M22.0847 90.9379V91.0651C22.0812 92.8709 21.4326 94.6159 20.256 95.9857L18.7101 97.8144L16.7258 100.147C16.5527 100.346 16.339 100.505 16.0991 100.614C15.8593 100.723 15.5989 100.779 15.3354 100.779V90.7776C15.4049 89.9393 15.792 89.1592 16.4175 88.5968C17.043 88.0343 17.8597 87.7321 18.7007 87.7518C19.5874 87.7469 20.4417 88.0846 21.0855 88.6944C21.3972 88.9797 21.6467 89.3262 21.8186 89.7121C21.9905 90.0981 22.0811 90.5154 22.0847 90.9379V90.9379Z" fill="#DF164C"/>
<path d="M15.345 90.7776V100.779C15.0773 100.784 14.8118 100.73 14.5674 100.621C14.323 100.512 14.1057 100.35 13.931 100.147L11.9562 97.8144L10.4055 95.9857C9.23242 94.6142 8.58582 92.8699 8.58154 91.0651V90.9379C8.6111 90.0694 8.98208 89.2477 9.61393 88.6511C10.2458 88.0546 11.0875 87.7314 11.9562 87.7518C12.8427 87.7479 13.6967 88.0854 14.341 88.6944C14.6521 88.9816 14.9006 89.33 15.0709 89.7176C15.2412 90.1053 15.3297 90.5239 15.3308 90.9473C15.3302 90.8904 15.335 90.8336 15.345 90.7776V90.7776Z" fill="#BB191A"/>
<g opacity="0.35">
<path d="M18.2056 89.703C18.5827 89.591 18.9866 89.611 19.3509 89.7595C19.6157 89.8899 19.8462 90.0807 20.0239 90.3164C20.2015 90.5522 20.3213 90.8264 20.3736 91.1169" fill="#BB191A"/>
<path d="M18.2056 89.703C18.5827 89.591 18.9866 89.611 19.3509 89.7595C19.6157 89.8899 19.8462 90.0807 20.0239 90.3164C20.2015 90.5522 20.3213 90.8264 20.3736 91.1169" stroke="#F6F6F6" stroke-width="3" stroke-miterlimit="10" stroke-linecap="round"/>
</g>
<path opacity="0.4" d="M22.8809 83.4722C22.8008 83.5361 22.7087 83.5834 22.6101 83.6114C22.5115 83.6394 22.4084 83.6474 22.3066 83.6352C22.2048 83.6229 22.1065 83.5905 22.0174 83.5398C21.9283 83.4892 21.8501 83.4214 21.7875 83.3403C21.7019 83.2329 21.647 83.1043 21.6287 82.9681C21.6105 82.832 21.6295 82.6935 21.6838 82.5673H21.6508L21.3256 82.1525L21.024 81.7708L20.7317 81.3937C20.7926 81.3755 20.8511 81.3502 20.9061 81.3183L20.6987 81.356L20.7317 81.3937C20.5359 81.4674 20.3252 81.4926 20.1176 81.4672C19.9099 81.4417 19.7115 81.3664 19.5393 81.2476L19.068 81.6011C19.0899 81.7492 19.0722 81.9005 19.0168 82.0396C18.9613 82.1786 18.87 82.3005 18.7522 82.3929C18.5762 82.5157 18.3599 82.5665 18.1476 82.5346C17.9354 82.5028 17.7434 82.3909 17.6112 82.2218C17.479 82.0528 17.4166 81.8395 17.4368 81.6259C17.4571 81.4122 17.5584 81.2144 17.72 81.0732C17.838 80.9813 17.9783 80.9223 18.1265 80.9025C18.2748 80.8826 18.4256 80.9025 18.5637 80.9601L19.035 80.6019L19.2848 80.4087C19.1613 80.343 19.0498 80.2569 18.9549 80.1542C18.9225 80.1218 18.8926 80.0872 18.8653 80.0505L17.079 77.7646L16.4569 76.9775L14.0484 80.0552C14.0202 80.0929 13.9872 80.1259 13.9589 80.1589C13.8628 80.2603 13.7515 80.3462 13.629 80.4134L13.8741 80.6066L14.3454 80.9648C14.4819 80.9042 14.6322 80.8811 14.7807 80.898C14.9291 80.9148 15.0704 80.9711 15.1898 81.0608C15.3093 81.1506 15.4026 81.2706 15.4602 81.4085C15.5177 81.5464 15.5374 81.6971 15.5171 81.8452C15.4969 81.9932 15.4375 82.1331 15.3451 82.2505C15.2526 82.3679 15.1305 82.4585 14.9914 82.5129C14.8522 82.5673 14.7011 82.5836 14.5535 82.56C14.406 82.5364 14.2674 82.4739 14.1521 82.3788C14.0355 82.2856 13.9454 82.1634 13.8909 82.0244C13.8363 81.8855 13.8191 81.7346 13.8411 81.587V81.587L13.3698 81.2335C13.1974 81.3519 12.9993 81.4274 12.7918 81.4537C12.5844 81.4799 12.3737 81.4561 12.1773 81.3843L11.8851 81.7566L11.5835 82.1384L11.2582 82.5532H11.2253C11.2933 82.7119 11.3062 82.8889 11.2619 83.0558C11.2176 83.2227 11.1186 83.37 10.9809 83.4742C10.8431 83.5783 10.6744 83.6333 10.5017 83.6304C10.329 83.6275 10.1623 83.5668 10.0281 83.4581C9.90065 83.3518 9.81055 83.2075 9.77097 83.0463C9.73139 82.8852 9.74442 82.7155 9.80814 82.5623C9.87186 82.4091 9.98293 82.2802 10.1251 82.1946C10.2673 82.109 10.4332 82.0712 10.5984 82.0866L10.6738 81.9923L10.9755 81.6058L11.3007 81.1911L11.5363 80.8894C11.4179 80.717 11.3432 80.5183 11.3186 80.3106C11.294 80.1029 11.3202 79.8923 11.3949 79.697L10.9236 79.3388C10.7522 79.4106 10.5618 79.4234 10.3823 79.3753C10.2028 79.3272 10.0444 79.2208 9.93188 79.0729C9.81936 78.925 9.75913 78.744 9.76064 78.5581C9.76215 78.3723 9.82531 78.1922 9.94022 78.0462C10.0551 77.9002 10.2153 77.7964 10.3955 77.7512C10.5758 77.706 10.7659 77.7219 10.9361 77.7965C11.1064 77.871 11.247 78 11.336 78.1631C11.425 78.3262 11.4573 78.5143 11.4279 78.6978V78.6978L11.8992 79.0513C12.0251 78.9612 12.1677 78.8971 12.3187 78.8627C12.3405 78.8229 12.3658 78.7851 12.3941 78.7496L15.1231 75.2619L12.6015 72.0381C12.5017 71.9111 12.4251 71.7675 12.3753 71.6139L11.9841 70.3885C11.9524 70.2925 11.935 70.1925 11.9322 70.0915C11.9268 70.0156 11.9398 69.9395 11.9702 69.8698C12.0006 69.8 12.0474 69.7386 12.1066 69.6909C12.2146 69.6239 12.3409 69.5924 12.4677 69.6008C12.5945 69.6093 12.7155 69.6573 12.8136 69.738L13.8976 70.4214C14.0328 70.5075 14.1523 70.6159 14.2511 70.7419L16.4522 73.5698L18.6532 70.7419C18.7508 70.6134 18.8705 70.5033 19.0067 70.4167L20.1002 69.7427C20.1983 69.662 20.3193 69.614 20.4461 69.6056C20.5729 69.5971 20.6992 69.6286 20.8071 69.6956C20.8671 69.7438 20.9143 69.806 20.9447 69.8766C20.9751 69.9473 20.9877 70.0243 20.9815 70.1009C20.9792 70.2004 20.9617 70.299 20.9297 70.3932L20.5385 71.6186C20.4867 71.7714 20.4103 71.9147 20.3123 72.0428L17.7907 75.2666L18.4129 76.0584L20.5196 78.7543C20.548 78.7898 20.5732 78.8276 20.5951 78.8675C20.745 78.9047 20.8871 78.9686 21.0145 79.056L21.4858 78.7025C21.4575 78.5191 21.4908 78.3315 21.5804 78.1691C21.67 78.0066 21.811 77.8785 21.9812 77.8046C22.1515 77.7308 22.3414 77.7156 22.5212 77.7612C22.7011 77.8068 22.8607 77.9108 22.9752 78.0568C23.0844 78.2038 23.1425 78.3825 23.1406 78.5656C23.1387 78.7487 23.077 78.9262 22.9649 79.0709C22.8527 79.2156 22.6963 79.3197 22.5194 79.3672C22.3426 79.4147 22.155 79.4031 21.9854 79.3341L21.5141 79.6923C21.5889 79.8876 21.6151 80.0982 21.5905 80.3059C21.5658 80.5136 21.4911 80.7123 21.3727 80.8847L21.6084 81.1863L21.9336 81.6011L22.2352 81.9876L22.3107 82.0819C22.4785 82.0642 22.6476 82.1016 22.7923 82.1885C22.937 82.2754 23.0496 82.407 23.1129 82.5635C23.1762 82.7199 23.1869 82.8928 23.1434 83.0559C23.0998 83.219 23.0044 83.3635 22.8715 83.4675L22.8809 83.4722Z" fill="black"/>
<path opacity="0.25" d="M20.4164 80.6255C20.3614 80.6573 20.3028 80.6826 20.242 80.7009L20.209 80.6632L20.4164 80.6255Z" fill="black"/>
<path opacity="0.25" d="M18.4648 79.4659C18.5597 79.5687 18.6713 79.6548 18.7948 79.7205L18.545 79.9137C18.4929 79.7701 18.4658 79.6187 18.4648 79.4659V79.4659Z" fill="black"/>
<path opacity="0.25" d="M20.4164 80.6255C20.3614 80.6573 20.3028 80.6826 20.242 80.7009L20.209 80.6632L20.4164 80.6255Z" fill="black"/>
<path opacity="0.25" d="M13.4691 79.4659C13.4688 79.6192 13.4401 79.771 13.3842 79.9137L13.1392 79.7205C13.2617 79.6532 13.373 79.5674 13.4691 79.4659V79.4659Z" fill="black"/>
<path d="M20.9865 80.4558L21.2834 80.8423L20.3643 81.0073L20.0674 80.6255L20.9865 80.4558Z" fill="#DF164C"/>
<path d="M18.7007 77.5383L20.6614 80.041L19.7423 80.2107L18.0503 78.0474L18.7007 77.5383Z" fill="#DF164C"/>
<path d="M21.6085 81.257L21.8772 81.5963L21.2268 82.1053L20.6895 81.4219L21.6085 81.257Z" fill="#16516C"/>
<path d="M11.1404 68.5455L16.1176 74.9083L15.4483 75.7661L11.6353 70.8927C11.5355 70.7657 11.4589 70.6221 11.4091 70.4685L11.0179 69.2431C10.9862 69.1472 10.9688 69.0471 10.966 68.9462C10.9606 68.8703 10.9736 68.7942 11.004 68.7244C11.0344 68.6546 11.0812 68.5933 11.1404 68.5455V68.5455Z" fill="#D2C590"/>
<path d="M19.3228 79.0041L18.9693 79.2822C18.7054 79.4896 18.2293 79.3199 17.9089 78.9099L16.1226 76.624L16.7918 75.7709L19.3228 79.0041Z" fill="#D2C590"/>
<path d="M16.7917 74.0505L16.1177 74.9083L11.1406 68.5455C11.2486 68.4785 11.3749 68.447 11.5017 68.4554C11.6285 68.4639 11.7495 68.5119 11.8476 68.5926L12.9552 69.2713C13.0903 69.3574 13.2099 69.4658 13.3087 69.5918L16.7917 74.0505Z" fill="#E1D7AF"/>
<path d="M19.6765 78.7307L19.323 79.0041L16.792 75.7708L17.466 74.9083L19.5539 77.6043C19.8933 78.019 19.9404 78.5233 19.6765 78.7307Z" fill="#E1D7AF"/>
<path d="M20.6613 80.041L20.9865 80.4558L20.0674 80.6255L19.7422 80.2107L20.6613 80.041Z" fill="#BB191A"/>
<path d="M21.0968 77.0949L17.0396 80.2693L17.542 80.9115L21.5992 77.7371L21.0968 77.0949Z" fill="#DF164C"/>
<path d="M19.3228 80.3332C20.0568 80.3332 20.6519 79.7381 20.6519 79.004C20.6519 78.27 20.0568 77.6749 19.3228 77.6749C18.5887 77.6749 17.9937 78.27 17.9937 79.004C17.9937 79.7381 18.5887 80.3332 19.3228 80.3332Z" fill="#E75418"/>
<path d="M17.2911 81.4314C17.7544 81.4314 18.13 81.0558 18.13 80.5925C18.13 80.1291 17.7544 79.7535 17.2911 79.7535C16.8278 79.7535 16.4521 80.1291 16.4521 80.5925C16.4521 81.0558 16.8278 81.4314 17.2911 81.4314Z" fill="#E75418"/>
<path d="M21.3492 78.2547C21.8125 78.2547 22.1881 77.8791 22.1881 77.4157C22.1881 76.9524 21.8125 76.5768 21.3492 76.5768C20.8859 76.5768 20.5103 76.9524 20.5103 77.4157C20.5103 77.8791 20.8859 78.2547 21.3492 78.2547Z" fill="#E75418"/>
<path d="M17.2722 80.9459C17.5611 80.9459 17.7954 80.7116 17.7954 80.4227C17.7954 80.1338 17.5611 79.8995 17.2722 79.8995C16.9833 79.8995 16.749 80.1338 16.749 80.4227C16.749 80.7116 16.9833 80.9459 17.2722 80.9459Z" fill="#F08011"/>
<path d="M21.3777 77.7928C21.6666 77.7928 21.9008 77.5586 21.9008 77.2696C21.9008 76.9807 21.6666 76.7465 21.3777 76.7465C21.0887 76.7465 20.8545 76.9807 20.8545 77.2696C20.8545 77.5586 21.0887 77.7928 21.3777 77.7928Z" fill="#F08011"/>
<path d="M19.888 78.5611C20.0048 78.7113 20.0575 78.9017 20.0345 79.0906C20.0116 79.2796 19.9149 79.4518 19.7655 79.5697L18.8794 78.4385C19.0297 78.3217 19.22 78.2691 19.409 78.292C19.5979 78.315 19.7701 78.4117 19.888 78.5611V78.5611Z" fill="#DF164C"/>
<path d="M18.8799 78.4385L19.766 79.5696C19.6917 79.6278 19.6067 79.6708 19.5158 79.6961C19.4249 79.7215 19.33 79.7286 19.2363 79.7173C19.0471 79.6943 18.8749 79.5971 18.7574 79.4471C18.6399 79.2971 18.5868 79.1066 18.6097 78.9174C18.6327 78.7283 18.7299 78.556 18.8799 78.4385Z" fill="#BB191A"/>
<path d="M21.2833 80.8423L21.6085 81.257L20.6895 81.422L20.3643 81.0072L21.2833 80.8423Z" fill="#BB191A"/>
<path d="M21.4388 82.4871C21.8683 82.4871 22.2165 82.1389 22.2165 81.7094C22.2165 81.2799 21.8683 80.9318 21.4388 80.9318C21.0093 80.9318 20.6611 81.2799 20.6611 81.7094C20.6611 82.1389 21.0093 82.4871 21.4388 82.4871Z" fill="#E75418"/>
<path d="M17.4656 74.9083L16.7917 75.7709L16.1177 74.9083L16.7917 74.0505L17.4656 74.9083Z" fill="#C7B57F"/>
<path d="M16.792 75.7708L16.1227 76.6239L15.4487 75.7661L16.118 74.9083L16.792 75.7708Z" fill="#B5A05D"/>
<path d="M21.4625 82.0582C21.7306 82.0582 21.948 81.8408 21.948 81.5727C21.948 81.3046 21.7306 81.0873 21.4625 81.0873C21.1944 81.0873 20.9771 81.3046 20.9771 81.5727C20.9771 81.8408 21.1944 82.0582 21.4625 82.0582Z" fill="#F08011"/>
<path d="M10.0097 80.4558L9.70801 80.8423L10.6318 81.0073L10.9287 80.6255L10.0097 80.4558Z" fill="#DF164C"/>
<path d="M12.2952 77.5383L10.3345 80.041L11.2535 80.2107L12.9456 78.0474L12.2952 77.5383Z" fill="#DF164C"/>
<path d="M9.3873 81.257L9.11865 81.5963L9.76907 82.1053L10.3064 81.4219L9.3873 81.257Z" fill="#16516C"/>
<path d="M19.8554 68.5409L11.6733 79.0042L12.0268 79.2775C12.2908 79.4896 12.7668 79.3199 13.092 78.9099L19.3605 70.8975C19.4603 70.7705 19.5369 70.6269 19.5868 70.4733L19.978 69.2479C20.0344 69.1321 20.053 69.0015 20.031 68.8746C20.009 68.7477 19.9476 68.6309 19.8554 68.5409V68.5409Z" fill="#EAE2B7"/>
<path d="M17.6964 69.592L11.4279 77.6044C11.1027 78.0191 11.0556 78.5187 11.3195 78.7261L11.673 79.0042L19.8551 68.5409C19.7462 68.4759 19.6199 68.446 19.4934 68.4553C19.3669 68.4645 19.2463 68.5126 19.1481 68.5928V68.5928L18.0546 69.2667C17.9169 69.3531 17.7956 69.4632 17.6964 69.592V69.592Z" fill="#F1E9C8"/>
<path d="M10.3345 80.041L10.0093 80.4558L10.9283 80.6255L11.2536 80.2107L10.3345 80.041Z" fill="#BB191A"/>
<path d="M9.39492 77.7396L13.4521 80.9141L13.9546 80.2719L9.89737 77.0975L9.39492 77.7396Z" fill="#DF164C"/>
<path d="M11.6734 80.3332C12.4074 80.3332 13.0025 79.7381 13.0025 79.004C13.0025 78.27 12.4074 77.6749 11.6734 77.6749C10.9393 77.6749 10.3442 78.27 10.3442 79.004C10.3442 79.7381 10.9393 80.3332 11.6734 80.3332Z" fill="#E75418"/>
<path d="M13.6998 81.4314C14.1631 81.4314 14.5387 81.0558 14.5387 80.5925C14.5387 80.1291 14.1631 79.7535 13.6998 79.7535C13.2364 79.7535 12.8608 80.1291 12.8608 80.5925C12.8608 81.0558 13.2364 81.4314 13.6998 81.4314Z" fill="#E75418"/>
<path d="M9.64656 78.2547C10.1099 78.2547 10.4855 77.8791 10.4855 77.4157C10.4855 76.9524 10.1099 76.5768 9.64656 76.5768C9.18323 76.5768 8.80762 76.9524 8.80762 77.4157C8.80762 77.8791 9.18323 78.2547 9.64656 78.2547Z" fill="#E75418"/>
<path d="M13.7234 80.9459C14.0123 80.9459 14.2465 80.7116 14.2465 80.4227C14.2465 80.1338 14.0123 79.8995 13.7234 79.8995C13.4344 79.8995 13.2002 80.1338 13.2002 80.4227C13.2002 80.7116 13.4344 80.9459 13.7234 80.9459Z" fill="#F08011"/>
<path d="M9.61838 77.7928C9.90731 77.7928 10.1415 77.5586 10.1415 77.2696C10.1415 76.9807 9.90731 76.7465 9.61838 76.7465C9.32944 76.7465 9.09521 76.9807 9.09521 77.2696C9.09521 77.5586 9.32944 77.7928 9.61838 77.7928Z" fill="#F08011"/>
<path d="M11.1079 78.5611C10.991 78.7113 10.9384 78.9017 10.9613 79.0906C10.9843 79.2796 11.081 79.4518 11.2304 79.5697L12.1165 78.4385C11.9662 78.3217 11.7759 78.2691 11.5869 78.292C11.398 78.315 11.2258 78.4117 11.1079 78.5611V78.5611Z" fill="#DF164C"/>
<path d="M12.1161 78.4385L11.23 79.5696C11.3043 79.6278 11.3893 79.6708 11.4801 79.6961C11.571 79.7215 11.666 79.7286 11.7597 79.7173C11.8533 79.7059 11.9438 79.6762 12.026 79.6298C12.1082 79.5835 12.1804 79.5214 12.2386 79.4471C12.2968 79.3728 12.3398 79.2878 12.3651 79.1969C12.3904 79.106 12.3976 79.0111 12.3862 78.9174C12.3748 78.8237 12.3451 78.7332 12.2988 78.6511C12.2524 78.5689 12.1903 78.4967 12.1161 78.4385V78.4385Z" fill="#BB191A"/>
<path d="M9.7077 80.8423L9.38721 81.257L10.3063 81.422L10.6315 81.0072L9.7077 80.8423Z" fill="#BB191A"/>
<path d="M9.55697 82.4871C9.98647 82.4871 10.3346 82.1389 10.3346 81.7094C10.3346 81.2799 9.98647 80.9318 9.55697 80.9318C9.12747 80.9318 8.7793 81.2799 8.7793 81.7094C8.7793 82.1389 9.12747 82.4871 9.55697 82.4871Z" fill="#E75418"/>
<path d="M9.53331 82.0582C9.80142 82.0582 10.0188 81.8408 10.0188 81.5727C10.0188 81.3046 9.80142 81.0873 9.53331 81.0873C9.2652 81.0873 9.04785 81.3046 9.04785 81.5727C9.04785 81.8408 9.2652 82.0582 9.53331 82.0582Z" fill="#F08011"/>
<path opacity="0.4" d="M14.3694 120.81L15.345 116.097L13.7519 115.767C13.5598 115.727 13.3796 115.642 13.2259 115.52C13.0723 115.398 12.9493 115.242 12.8668 115.063C12.7844 114.885 12.7448 114.69 12.7512 114.494C12.7575 114.298 12.8097 114.106 12.9036 113.933L16.3018 107.707C16.4343 107.421 16.6694 107.195 16.9606 107.074C17.2518 106.953 17.5778 106.946 17.8742 107.054C18.1705 107.161 18.4155 107.377 18.5608 107.657C18.706 107.937 18.7408 108.261 18.6584 108.565L17.6686 113.269L19.2569 113.599C19.4491 113.639 19.6292 113.723 19.7829 113.846C19.9366 113.968 20.0596 114.124 20.142 114.302C20.2245 114.48 20.2641 114.675 20.2577 114.872C20.2513 115.068 20.1991 115.26 20.1053 115.432L16.726 121.644C16.59 121.921 16.3571 122.139 16.0714 122.255C15.7857 122.371 15.4672 122.379 15.1764 122.276C14.8855 122.173 14.6427 121.967 14.4939 121.697C14.3451 121.426 14.3008 121.111 14.3694 120.81V120.81Z" fill="black"/>
<path d="M13.3041 119.453L14.2703 114.796L12.6961 114.466C12.5059 114.426 12.3277 114.343 12.1755 114.222C12.0233 114.101 11.9015 113.946 11.8196 113.77C11.7376 113.594 11.698 113.401 11.7037 113.207C11.7094 113.013 11.7603 112.823 11.8524 112.652L15.2176 106.487C15.361 106.226 15.5932 106.025 15.8719 105.921C16.1507 105.817 16.4576 105.816 16.737 105.918C17.0163 106.021 17.2497 106.22 17.3946 106.48C17.5396 106.74 17.5866 107.043 17.5271 107.335L16.5609 111.996L18.1398 112.326C18.3301 112.366 18.5084 112.449 18.6606 112.57C18.8128 112.691 18.9345 112.846 19.0161 113.022C19.0976 113.199 19.1367 113.392 19.1302 113.586C19.1237 113.78 19.0719 113.97 18.9787 114.141L15.6135 120.306C15.4703 120.568 15.2377 120.77 14.9581 120.874C14.6785 120.979 14.3706 120.98 14.0905 120.876C13.8104 120.773 13.5769 120.572 13.4325 120.311C13.2881 120.049 13.2425 119.745 13.3041 119.453V119.453Z" fill="#EAE2B7"/>
<path opacity="0.6" d="M14.0342 109.849C13.8618 110.158 13.9727 110.549 14.2819 110.721C14.5911 110.893 14.9815 110.783 15.1539 110.473L16.0926 108.79C16.265 108.48 16.1541 108.09 15.8449 107.918C15.5357 107.745 15.1453 107.856 14.9729 108.165L14.0342 109.849Z" fill="white"/>
</svg>
